<svg width="599" height="352" viewBox="0 0 599 352" fill="none" xmlns="http://www.w3.org/2000/svg">
<path d="M305.753 349.21C306.966 342.846 310.732 337.011 316.02 333.286" stroke="#04D361" stroke-width="0.779" stroke-miterlimit="10"/>
<path d="M305.589 351C305.817 345.686 307.868 332.893 312.719 324.885" stroke="#04D361" stroke-width="0.779" stroke-miterlimit="10"/>
<path d="M305.662 350.343C306.501 340.865 306.428 330.391 304.95 320.986" stroke="#04D361" stroke-width="0.779" stroke-miterlimit="10"/>
<path d="M316.793 330.811L316.793 330.811C316.746 330.894 316.699 330.978 316.652 331.061C315.993 332.226 315.334 333.389 314.522 334.489C314.735 334.418 314.96 334.332 315.194 334.238C315.312 334.191 315.434 334.141 315.558 334.091C315.815 333.986 316.08 333.878 316.331 333.784C316.704 333.645 317.091 333.521 317.452 333.467L317.452 333.467C319.126 333.221 320.835 333.289 322.477 333.502L322.477 333.502C323.758 333.67 325.036 333.923 326.293 334.173C326.701 334.254 327.108 334.335 327.511 334.412C329.171 334.729 330.804 334.992 332.45 335.014L332.45 335.014C333.384 335.027 334.376 334.906 335.214 334.583C336.049 334.261 336.693 333.756 337.019 333.019L337.02 333.018C337.559 331.812 337.004 330.222 335.88 329.287L335.879 329.286C334.766 328.353 333.24 327.982 331.665 327.83L331.665 327.83C331.092 327.774 330.519 327.745 329.932 327.716C329.715 327.705 329.497 327.694 329.276 327.681C328.466 327.635 327.636 327.57 326.814 327.413L326.813 327.412C326.322 327.317 325.837 327.191 325.366 327.065C325.291 327.045 325.217 327.025 325.144 327.005C324.747 326.898 324.361 326.794 323.975 326.706C323.062 326.497 322.206 326.391 321.368 326.554L316.793 330.811ZM316.793 330.811L316.794 330.809M316.793 330.811L316.794 330.809M316.794 330.809C317.915 328.811 319.359 326.945 321.368 326.554L316.794 330.809Z" fill="#04D361" stroke="#04D361"/>
<path d="M312.107 326.007C312.732 325.484 313.324 324.836 313.937 324.143C314.017 324.053 314.096 323.963 314.176 323.872C314.913 323.036 315.687 322.157 316.547 321.472C318.904 319.588 321.759 318.133 324.835 317.895L312.107 326.007ZM312.107 326.007C312.138 325.827 312.185 325.618 312.249 325.381C312.468 324.575 312.856 323.547 313.3 322.485C313.973 320.877 314.75 319.246 315.223 318.253C315.375 317.934 315.496 317.681 315.572 317.515C317.131 314.13 319.537 310.952 322.939 309.999L322.939 309.999C324.383 309.595 325.886 309.611 327.457 309.751C327.993 309.799 328.546 309.862 329.107 309.926C330.153 310.047 331.228 310.17 332.273 310.2L332.275 310.2C332.778 310.212 333.29 310.204 333.79 310.196C334.034 310.192 334.275 310.188 334.51 310.187C335.242 310.182 335.95 310.2 336.645 310.304C338.032 310.513 339.352 311.134 340 312.229L340.001 312.23C340.501 313.07 340.528 314.097 340.185 315.086C339.841 316.077 339.138 316.983 338.257 317.541C336.447 318.688 334.122 318.77 331.841 318.517C331.18 318.444 330.544 318.35 329.899 318.254C329.409 318.182 328.913 318.109 328.397 318.043C327.234 317.895 326.044 317.799 324.836 317.894L312.107 326.007ZM312.085 326.594C312.085 326.594 312.085 326.593 312.085 326.592L312.085 326.594Z" fill="#04D361" stroke="#04D361"/>
<path d="M307.229 311.871L307.229 311.872C307.522 313.665 307.224 315.507 306.662 317.283C306.622 317.41 306.574 317.57 306.518 317.753C306.35 318.313 306.114 319.093 305.824 319.831C305.632 320.319 305.427 320.759 305.218 321.081C305.114 321.242 305.018 321.358 304.935 321.434C304.85 321.511 304.802 321.525 304.793 321.527L304.792 321.527C304.688 321.547 304.477 321.517 304.14 321.349C303.821 321.19 303.464 320.945 303.102 320.659C302.38 320.089 301.702 319.404 301.373 319.061C300.368 318.002 299.568 316.755 299.074 315.392L299.073 315.39C298.495 313.816 298.295 312.134 298.095 310.381C298.091 310.343 298.087 310.304 298.082 310.266C297.889 308.569 297.689 306.807 297.106 305.134L297.106 305.134C296.443 303.239 295.314 301.545 294.232 299.922C293.948 299.496 293.667 299.075 293.399 298.656C292.084 296.604 290.971 294.409 290.988 292.108C291.005 289.802 292.47 287.482 294.57 287.109L294.571 287.109C295.956 286.86 297.429 287.442 298.648 288.367L298.649 288.367C300.372 289.668 301.63 291.57 302.168 293.67C302.491 294.941 302.554 296.264 302.616 297.647L302.618 297.703C302.679 299.05 302.741 300.455 303.079 301.821C303.498 303.534 304.329 305.106 305.126 306.612C305.186 306.727 305.247 306.841 305.307 306.955C306.168 308.589 306.952 310.159 307.229 311.871Z" fill="#04D361" stroke="#04D361"/>
<path d="M305.57 349.448C304.95 341.075 302.798 331.615 298.121 324.648" stroke="#04D361" stroke-width="0.779" stroke-miterlimit="10"/>
<path d="M296.993 318.35L296.993 318.352C297.663 320.22 298.076 322.177 298.421 324.15L298.422 324.151C298.44 324.255 298.472 324.389 298.503 324.52C298.515 324.571 298.526 324.621 298.537 324.67C298.581 324.859 298.62 325.052 298.642 325.236C298.663 325.424 298.662 325.573 298.64 325.681C298.62 325.785 298.589 325.81 298.58 325.816L298.58 325.816C298.576 325.82 298.539 325.847 298.411 325.828C298.282 325.808 298.116 325.749 297.925 325.65C297.546 325.456 297.175 325.165 296.987 324.998C296.651 324.69 296.353 324.334 296.054 323.946C295.949 323.809 295.839 323.663 295.728 323.514C295.535 323.258 295.336 322.992 295.135 322.744L295.135 322.744C292.423 319.41 288.14 317.806 284.003 317.213C281.933 316.917 279.851 316.839 277.785 316.805C277.239 316.797 276.695 316.791 276.153 316.785C274.634 316.77 273.128 316.754 271.622 316.67L271.619 316.67C270.682 316.624 269.838 316.522 269.213 316.078C268.397 315.494 268.057 314.299 268.307 313.209C268.556 312.132 269.299 311.177 270.215 310.39L270.215 310.39C272.238 308.651 274.925 307.774 277.636 307.597C280.348 307.419 283.087 307.907 285.762 308.631L285.762 308.631C288.34 309.328 290.853 310.264 292.829 311.927C294.782 313.578 296.118 315.884 296.993 318.35Z" fill="#04D361" stroke="#04D361"/>
<path d="M305.397 350.343C305.033 343.038 301.75 335.916 296.443 330.894" stroke="#04D361" stroke-width="0.779" stroke-miterlimit="10"/>
<path d="M293.663 327.061C291.828 326.085 289.75 325.449 287.7 324.874L293.663 327.061ZM293.663 327.061C293.802 327.135 293.927 327.203 294.052 327.277L294.051 327.277L294.063 327.284C294.861 327.735 295.393 328.52 295.979 329.414C296.046 329.517 296.15 329.726 296.29 330.028C296.332 330.119 296.378 330.218 296.425 330.32C296.524 330.536 296.631 330.77 296.74 330.996C296.773 331.065 296.807 331.135 296.841 331.204C294.373 330.528 291.657 330.553 289.281 330.576L289.253 330.576C289.253 330.576 289.253 330.576 289.253 330.576M293.663 327.061L289.253 330.576M289.253 330.576C286.003 330.604 282.752 331.209 279.713 332.381L279.711 332.382C279.308 332.539 278.915 332.703 278.527 332.863C277.049 333.477 275.655 334.055 274.149 334.138C273.65 334.162 273.118 334.091 272.689 333.909C272.265 333.729 271.983 333.462 271.871 333.11C271.696 332.535 272 331.853 272.515 331.166L272.515 331.166M289.253 330.576L272.515 331.166M272.515 331.166L272.516 331.164M272.515 331.166L272.516 331.164M272.516 331.164C273.534 329.793 274.848 328.669 276.205 327.512M272.516 331.164L276.205 327.512M276.205 327.512C277.974 326.008 279.727 324.562 281.83 324.153L276.205 327.512ZM297.511 331.408C297.296 331.019 297.077 330.542 296.882 330.117C296.688 329.696 296.518 329.325 296.397 329.14C295.823 328.264 295.23 327.369 294.309 326.849C294.172 326.766 294.036 326.693 293.899 326.62L297.511 331.408ZM281.83 324.153C283.719 323.786 285.692 324.311 287.7 324.874L281.83 324.153Z" fill="#04D361" stroke="#04D361"/>
<path d="M527.582 320.671L527.582 320.672C526.511 321.733 525.19 322.346 523.884 322.858C523.565 322.984 523.248 323.103 522.935 323.22C521.942 323.593 520.987 323.952 520.1 324.458C517.596 325.89 515.788 328.472 514.701 331.246C514.688 331.279 514.675 331.312 514.662 331.345C514.255 332.391 513.668 333.893 513.343 335.367C513.176 336.127 513.083 336.857 513.113 337.497C513.143 338.139 513.294 338.649 513.574 339.014L513.576 339.016C514.21 339.851 515.327 340.025 516.712 339.796C518.075 339.571 519.507 338.983 520.543 338.547L520.544 338.547C520.923 338.388 521.307 338.221 521.696 338.051C523.704 337.177 525.835 336.249 528.055 336.153C530.458 336.047 532.706 336.914 534.765 337.74L534.821 337.763C536.891 338.594 538.907 339.403 541.046 339.412C543.19 339.421 545.479 338.399 546.453 336.506C546.862 335.705 547.028 334.806 547.208 333.832C547.241 333.655 547.274 333.476 547.309 333.294C547.53 332.152 547.83 330.932 548.706 329.962L548.707 329.962C549.605 328.968 550.785 328.568 551.978 328.401C552.836 328.281 553.754 328.277 554.608 328.273C554.92 328.272 555.223 328.27 555.512 328.263L555.513 328.263C557.912 328.21 560.378 327.563 562.233 326.006L562.234 326.005C564.098 324.45 565.189 321.872 564.599 319.728L564.598 319.728C564.11 317.953 562.627 316.687 561.055 315.419L561.055 315.418C558.888 313.665 556.62 311.992 554.009 312.168C553.079 312.235 552.162 312.534 551.175 312.856L551.102 312.88C550.11 313.204 549.044 313.545 547.937 313.585C546.54 313.634 545.277 313.207 544.116 312.615C543.236 312.165 542.383 311.603 541.572 311.068C541.326 310.906 541.084 310.746 540.846 310.592C538.757 309.246 536.312 308.266 534.204 309.28L527.582 320.671ZM527.582 320.671C529.089 319.17 529.766 317.087 530.381 315.192M527.582 320.671L530.381 315.192M530.381 315.192C530.468 314.925 530.553 314.661 530.64 314.404M530.381 315.192L530.64 314.404M530.64 314.404C531.36 312.259 532.383 310.159 534.203 309.28L530.64 314.404Z" fill="#04D361" stroke="#04D361"/>
<path d="M513.615 339.072C525.752 328.635 539.913 321.723 555.196 318.783" stroke="white" stroke-width="0.7047" stroke-miterlimit="10" stroke-linecap="round" stroke-linejoin="round"/>
<path d="M525.615 323.02C525.898 319.577 525.251 315.989 526.381 312.729C528.396 306.921 535.381 303.89 537.132 298C539.229 290.96 532.828 283.774 533.941 276.515C534.406 273.456 536.166 270.762 537.26 267.868C538.354 264.973 538.637 261.348 536.512 259.093C534.287 256.737 530.248 257.011 527.603 258.892C524.959 260.773 523.436 263.823 522.196 266.827C520.965 269.831 519.88 272.972 517.792 275.465C513.989 280.003 507.15 281.994 505.071 287.536C502.956 293.179 506.959 299.151 507.67 305.132C508.208 309.661 506.831 314.172 505.6 318.573C504.378 322.974 503.293 327.631 504.415 332.05C505.91 337.94 511.208 341.693 516.287 337.912C521.311 334.196 525.096 329.493 525.615 323.02Z" fill="#04D361"/>
<path d="M513.068 339.355C511.053 318.335 515.667 295.535 526.445 277.383" stroke="white" stroke-width="1.1364" stroke-miterlimit="10" stroke-linecap="round" stroke-linejoin="round"/>
<path d="M499.646 331.429C497.43 328.297 496.162 324.38 493.153 321.997C489.706 319.257 484.928 319.23 480.551 318.874C476.165 318.518 471.223 317.276 469.19 313.368C468.077 311.222 468.077 308.675 467.302 306.392C466.445 303.881 464.694 301.799 463.463 299.452C462.241 297.105 461.594 294.12 463.016 291.882C464.457 289.618 467.612 288.951 470.193 289.682C472.773 290.412 474.889 292.229 476.822 294.092C478.755 295.955 480.643 297.946 483.023 299.169C486.971 301.187 491.658 300.813 496.089 300.621C500.521 300.438 505.354 300.621 508.783 303.452C511.6 305.78 512.886 309.442 514.035 312.92C515.694 317.897 517.39 322.855 519.004 327.85C519.998 330.918 521.895 335.62 518.704 338.031C513.077 342.277 502.892 336.004 499.646 331.429Z" fill="#04D361"/>
<path d="M516.925 338.214C509.886 321.851 494.986 307.917 477.15 301.771" stroke="white" stroke-width="0.8174" stroke-miterlimit="10" stroke-linecap="round" stroke-linejoin="round"/>
<path d="M111.359 337.462C113.374 334.458 114.541 330.605 117.249 328.404C120.359 325.893 124.635 326.222 128.574 326.176C132.505 326.14 136.945 325.254 138.805 321.456C139.827 319.374 139.836 316.799 140.556 314.543C141.34 312.069 142.927 310.097 144.049 307.814C145.161 305.531 145.763 302.563 144.514 300.198C143.237 297.806 140.419 296.902 138.103 297.45C135.787 297.998 133.872 299.678 132.131 301.413C130.389 303.148 128.684 305.02 126.532 306.079C122.976 307.832 118.781 307.102 114.805 306.581C110.83 306.07 106.498 305.905 103.407 308.508C100.863 310.653 99.6868 314.26 98.6199 317.684C97.0971 322.588 95.5378 327.473 94.0515 332.395C93.1396 335.426 91.398 340.028 94.243 342.704C99.2308 347.433 108.413 341.845 111.359 337.462Z" fill="#04D361"/>
<path d="M95.8204 343.051C102.258 327.035 115.717 314.059 131.748 309.156" stroke="white" stroke-width="0.7781" stroke-miterlimit="10" stroke-linecap="round" stroke-linejoin="round"/>
<path d="M86.9937 329.053C86.7749 325.884 87.2855 322.588 86.3828 319.584C84.7688 314.242 79.17 311.457 77.7657 306.042C76.0879 299.569 81.2125 292.958 80.328 286.274C79.9542 283.461 78.5408 280.987 77.6654 278.32C76.79 275.654 76.5621 272.321 78.2672 270.249C80.0545 268.075 83.2825 268.331 85.4071 270.066C87.5226 271.801 88.7445 274.604 89.7384 277.362C90.7232 280.119 91.5986 283.014 93.2673 285.306C96.3129 289.479 101.793 291.305 103.453 296.409C105.149 301.605 101.939 307.092 101.374 312.599C100.945 316.771 102.048 320.917 103.033 324.962C104.018 329.007 104.884 333.29 103.982 337.362C102.787 342.777 98.5378 346.228 94.4709 342.758C90.4496 339.334 87.4132 335.006 86.9937 329.053Z" fill="#04D361"/>
<path d="M97.0423 344.073C98.6563 324.743 94.9542 303.769 86.328 287.068" stroke="white" stroke-width="0.9754" stroke-miterlimit="10" stroke-linecap="round" stroke-linejoin="round"/>
<path d="M35.2001 313.594C34.4615 316.762 35.9934 320.588 38.4098 322.962C40.8263 325.346 43.963 326.45 46.9448 326.715L54.7503 329.29L55.1443 328.982C55.1442 328.982 55.1441 328.982 55.144 328.982C54.0833 327.624 52.6907 326.998 51.2498 326.679C50.2109 326.449 49.1019 326.372 48.0674 326.3C47.6964 326.274 47.3351 326.249 46.99 326.217L46.989 326.217C44.0938 325.96 41.076 324.89 38.7609 322.606L38.7602 322.606C36.4324 320.319 34.9983 316.662 35.687 313.708M35.2001 313.594L35.6869 313.708C35.6869 313.708 35.6869 313.708 35.687 313.708M35.2001 313.594L35.687 313.707C35.687 313.707 35.687 313.708 35.687 313.708M35.2001 313.594C35.811 310.991 37.7351 309.275 39.5679 307.713C42.112 305.54 44.9843 303.267 48.4038 303.751C49.608 303.919 50.7886 304.423 51.9675 304.927C53.2166 305.46 54.4638 305.993 55.7351 306.125M35.687 313.708C36.2557 311.286 38.0473 309.666 39.8921 308.094L39.8926 308.094C42.4677 305.894 45.1705 303.798 48.3337 304.246L48.3345 304.246C49.4717 304.405 50.5983 304.886 51.8004 305.399L51.8766 305.432C53.0787 305.945 54.3604 306.485 55.6836 306.622M55.6836 306.622L55.7351 306.125M55.6836 306.622C57.3557 306.795 58.8621 306.318 60.2444 305.61C61.292 305.073 62.3029 304.382 63.2673 303.724C63.5615 303.523 63.8514 303.325 64.1367 303.135L64.1377 303.134C66.6181 301.475 69.5593 300.326 72.1756 301.879M55.6836 306.622C55.6836 306.622 55.6836 306.622 55.6837 306.622L55.7351 306.125M55.7351 306.125C58.4512 306.406 60.7495 304.837 62.9669 303.323C63.2657 303.119 63.5631 302.916 63.8598 302.719C66.3583 301.048 69.5406 299.733 72.4312 301.45M72.1756 301.879C72.1754 301.879 72.1751 301.879 72.1749 301.879L72.4312 301.45M72.1756 301.879C73.3056 302.554 74.207 303.637 74.9435 304.94C75.6795 306.243 76.2346 307.739 76.686 309.203L76.6864 309.204C76.7997 309.568 76.9115 309.939 77.0244 310.313C77.8118 312.923 78.6555 315.719 80.47 317.811M72.1756 301.879C72.1757 301.879 72.1758 301.879 72.1759 301.879L72.4312 301.45M72.4312 301.45C74.8932 302.92 76.2519 306.097 77.1638 309.056L80.47 317.811M80.47 317.811C81.7582 319.303 83.3399 320.222 84.927 321.015C85.3151 321.209 85.7009 321.394 86.0832 321.578C87.2876 322.156 88.4563 322.718 89.5443 323.473L89.5449 323.474C92.646 325.62 94.9129 329.294 96.2977 333.165C96.3159 333.216 96.3345 333.268 96.3534 333.321C96.8658 334.759 97.6075 336.839 98.036 338.867C98.258 339.918 98.3914 340.934 98.3705 341.825C98.3496 342.722 98.1733 343.441 97.8256 343.944L97.8244 343.946C97.0647 345.054 95.7107 345.2 94.0268 344.783C92.3665 344.372 90.6132 343.462 89.3529 342.792L89.3526 342.792C88.9004 342.552 88.4421 342.301 87.9795 342.048C86.9796 341.501 85.9599 340.943 84.9404 340.461C83.4397 339.751 81.885 339.175 80.2748 338.993L80.2747 338.993C77.391 338.666 74.7013 339.658 72.2398 340.622L72.1666 340.651C69.6995 341.617 67.292 342.56 64.7029 342.396C62.11 342.232 59.2544 340.675 57.9852 337.937L80.47 317.811ZM80.47 317.811L80.8477 317.484L80.4692 317.81C80.4695 317.811 80.4697 317.811 80.47 317.811ZM89.1182 343.233C88.6538 342.987 88.1889 342.733 87.723 342.478C85.2712 341.137 82.7931 339.781 80.2185 339.489C77.4738 339.179 74.8932 340.12 72.4221 341.087L72.3033 341.134C69.8697 342.087 67.3721 343.066 64.6713 342.895C61.9266 342.722 58.8902 341.078 57.5315 338.147L89.1182 343.233ZM89.1182 343.233C91.6258 344.566 96.3401 346.995 98.2368 344.229L89.1182 343.233Z" fill="#04D361" stroke="#04D361"/>
<path d="M97.6989 343.854C82.8265 328.824 65.5833 318.397 47.0908 313.247" stroke="white" stroke-width="0.8986" stroke-miterlimit="10" stroke-linecap="round" stroke-linejoin="round"/>
<path d="M523.847 71.5967C523.847 74.4913 521.504 76.8379 518.613 76.8379C515.723 76.8379 513.379 74.4913 513.379 71.5967C513.379 68.7022 515.723 66.3555 518.613 66.3555C521.495 66.3555 523.847 68.7022 523.847 71.5967Z" stroke="#04D361" stroke-width="2" stroke-miterlimit="10" stroke-linecap="round" stroke-linejoin="round"/>
<path d="M522.397 75.2126L526.09 78.9192" stroke="#04D361" stroke-width="2" stroke-miterlimit="10" stroke-linecap="round" stroke-linejoin="round"/>
<path d="M319.068 1L324.575 6.51422" stroke="#04D361" stroke-width="2" stroke-miterlimit="10" stroke-linecap="round" stroke-linejoin="round"/>
<path d="M324.575 1L319.068 6.51422" stroke="#04D361" stroke-width="2" stroke-miterlimit="10" stroke-linecap="round" stroke-linejoin="round"/>
<path d="M397.995 318.459L403.501 323.974" stroke="#04D361" stroke-width="2" stroke-miterlimit="10" stroke-linecap="round" stroke-linejoin="round"/>
<path d="M403.501 318.459L397.995 323.974" stroke="#04D361" stroke-width="2" stroke-miterlimit="10" stroke-linecap="round" stroke-linejoin="round"/>
<path d="M48.5352 245.386V253.184" stroke="#04D361" stroke-width="2" stroke-miterlimit="10" stroke-linecap="round" stroke-linejoin="round"/>
<path d="M52.4387 249.284H44.6423" stroke="#04D361" stroke-width="2" stroke-miterlimit="10" stroke-linecap="round" stroke-linejoin="round"/>
<path d="M31.5993 185.515C31.5993 188.126 29.4838 190.254 26.8668 190.254C24.2588 190.254 22.1342 188.136 22.1342 185.515C22.1342 182.903 24.2497 180.776 26.8668 180.776C29.4838 180.785 31.5993 182.903 31.5993 185.515Z" stroke="#04D361" stroke-width="2" stroke-miterlimit="10" stroke-linecap="round" stroke-linejoin="round"/>
<path d="M228.027 300.134C228.027 302.746 225.911 304.873 223.294 304.873C220.687 304.873 218.562 302.755 218.562 300.134C218.562 297.523 220.677 295.395 223.294 295.395C225.911 295.404 228.027 297.523 228.027 300.134Z" stroke="#04D361" stroke-width="2" stroke-miterlimit="10" stroke-linecap="round" stroke-linejoin="round"/>
<path d="M540.339 214.786C540.339 217.398 538.224 219.525 535.607 219.525C532.999 219.525 530.874 217.407 530.874 214.786C530.874 212.175 532.99 210.047 535.607 210.047C538.224 210.056 540.339 212.175 540.339 214.786Z" stroke="#04D361" stroke-width="2" stroke-miterlimit="10" stroke-linecap="round" stroke-linejoin="round"/>
<path d="M2.928 102.464C2.928 103.137 2.38383 103.68 1.714 103.68C1.04417 103.68 0.5 103.137 0.5 102.464C0.5 101.792 1.04417 101.248 1.714 101.248C2.38383 101.248 2.928 101.792 2.928 102.464Z" fill="#9871F5" stroke="#9871F5"/>
<path d="M14.9008 102.464C14.9008 103.137 14.3566 103.68 13.6868 103.68C13.0169 103.68 12.4728 103.137 12.4728 102.464C12.4728 101.792 13.017 101.248 13.6868 101.248C14.3566 101.248 14.9008 101.792 14.9008 102.464Z" fill="#9871F5" stroke="#9871F5"/>
<path d="M26.8644 102.464C26.8644 103.137 26.3202 103.68 25.6504 103.68C24.9806 103.68 24.4364 103.137 24.4364 102.464C24.4364 101.792 24.9806 101.248 25.6504 101.248C26.3202 101.248 26.8644 101.792 26.8644 102.464Z" fill="#9871F5" stroke="#9871F5"/>
<path d="M38.8371 102.464C38.8371 103.137 38.2929 103.68 37.6231 103.68C36.9532 103.68 36.4091 103.137 36.4091 102.464C36.4091 101.792 36.9532 101.248 37.6231 101.248C38.2929 101.248 38.8371 101.792 38.8371 102.464Z" fill="#9871F5" stroke="#9871F5"/>
<path d="M50.8006 102.464C50.8006 103.137 50.2564 103.68 49.5866 103.68C48.9168 103.68 48.3726 103.137 48.3726 102.464C48.3726 101.792 48.9168 101.248 49.5866 101.248C50.2564 101.248 50.8006 101.792 50.8006 102.464Z" fill="#9871F5" stroke="#9871F5"/>
<path d="M62.7732 102.464C62.7732 103.137 62.229 103.68 61.5592 103.68C60.8894 103.68 60.3452 103.137 60.3452 102.464C60.3452 101.792 60.8894 101.248 61.5592 101.248C62.229 101.248 62.7732 101.792 62.7732 102.464Z" fill="#9871F5" stroke="#9871F5"/>
<path d="M2.928 114.444C2.928 115.117 2.38383 115.66 1.714 115.66C1.04417 115.66 0.5 115.117 0.5 114.444C0.5 113.772 1.04417 113.228 1.714 113.228C2.38383 113.228 2.928 113.772 2.928 114.444Z" fill="#9871F5" stroke="#9871F5"/>
<path d="M14.9008 114.444C14.9008 115.117 14.3566 115.66 13.6868 115.66C13.0169 115.66 12.4728 115.117 12.4728 114.444C12.4728 113.772 13.0169 113.228 13.6868 113.228C14.3566 113.228 14.9008 113.772 14.9008 114.444Z" fill="#9871F5" stroke="#9871F5"/>
<path d="M26.8644 114.444C26.8644 115.117 26.3202 115.66 25.6504 115.66C24.9806 115.66 24.4364 115.117 24.4364 114.444C24.4364 113.772 24.9806 113.228 25.6504 113.228C26.3202 113.228 26.8644 113.772 26.8644 114.444Z" fill="#9871F5" stroke="#9871F5"/>
<path d="M38.8371 114.444C38.8371 115.117 38.2929 115.66 37.6231 115.66C36.9532 115.66 36.4091 115.117 36.4091 114.444C36.4091 113.772 36.9532 113.228 37.6231 113.228C38.2929 113.228 38.8371 113.772 38.8371 114.444Z" fill="#9871F5" stroke="#9871F5"/>
<path d="M50.8006 114.444C50.8006 115.117 50.2564 115.66 49.5866 115.66C48.9168 115.66 48.3726 115.117 48.3726 114.444C48.3726 113.772 48.9168 113.228 49.5866 113.228C50.2564 113.228 50.8006 113.772 50.8006 114.444Z" fill="#9871F5" stroke="#9871F5"/>
<path d="M62.7732 114.444C62.7732 115.117 62.229 115.66 61.5592 115.66C60.8894 115.66 60.3452 115.117 60.3452 114.444C60.3452 113.772 60.8894 113.228 61.5592 113.228C62.229 113.228 62.7732 113.772 62.7732 114.444Z" fill="#9871F5" stroke="#9871F5"/>
<path d="M2.928 126.433C2.928 127.106 2.38383 127.649 1.714 127.649C1.04417 127.649 0.5 127.106 0.5 126.433C0.5 125.761 1.04417 125.217 1.714 125.217C2.38383 125.217 2.928 125.761 2.928 126.433Z" fill="#9871F5" stroke="#9871F5"/>
<path d="M14.9008 126.433C14.9008 127.106 14.3566 127.649 13.6868 127.649C13.0169 127.649 12.4728 127.106 12.4728 126.433C12.4728 125.761 13.017 125.217 13.6868 125.217C14.3566 125.217 14.9008 125.761 14.9008 126.433Z" fill="#9871F5" stroke="#9871F5"/>
<path d="M26.8644 126.433C26.8644 127.106 26.3202 127.649 25.6504 127.649C24.9806 127.649 24.4364 127.106 24.4364 126.433C24.4364 125.761 24.9806 125.217 25.6504 125.217C26.3202 125.217 26.8644 125.761 26.8644 126.433Z" fill="#9871F5" stroke="#9871F5"/>
<path d="M38.8371 126.433C38.8371 127.106 38.2929 127.649 37.6231 127.649C36.9532 127.649 36.4091 127.106 36.4091 126.433C36.4091 125.761 36.9532 125.217 37.6231 125.217C38.2929 125.217 38.8371 125.761 38.8371 126.433Z" fill="#9871F5" stroke="#9871F5"/>
<path d="M50.8006 126.433C50.8006 127.106 50.2564 127.649 49.5866 127.649C48.9168 127.649 48.3726 127.106 48.3726 126.433C48.3726 125.761 48.9168 125.217 49.5866 125.217C50.2564 125.217 50.8006 125.761 50.8006 126.433Z" fill="#9871F5" stroke="#9871F5"/>
<path d="M62.7732 126.433C62.7732 127.106 62.229 127.649 61.5592 127.649C60.8894 127.649 60.3452 127.106 60.3452 126.433C60.3452 125.761 60.8894 125.217 61.5592 125.217C62.229 125.217 62.7732 125.761 62.7732 126.433Z" fill="#9871F5" stroke="#9871F5"/>
<path d="M2.928 138.413C2.928 139.086 2.38383 139.629 1.714 139.629C1.04417 139.629 0.5 139.086 0.5 138.413C0.5 137.741 1.04417 137.197 1.714 137.197C2.38383 137.197 2.928 137.741 2.928 138.413Z" fill="#9871F5" stroke="#9871F5"/>
<path d="M14.9008 138.413C14.9008 139.086 14.3566 139.629 13.6868 139.629C13.017 139.629 12.4728 139.086 12.4728 138.413C12.4728 137.741 13.017 137.197 13.6868 137.197C14.3566 137.197 14.9008 137.741 14.9008 138.413Z" fill="#9871F5" stroke="#9871F5"/>
<path d="M26.8644 138.413C26.8644 139.086 26.3202 139.629 25.6504 139.629C24.9806 139.629 24.4364 139.086 24.4364 138.413C24.4364 137.741 24.9806 137.197 25.6504 137.197C26.3202 137.197 26.8644 137.741 26.8644 138.413Z" fill="#9871F5" stroke="#9871F5"/>
<path d="M38.8371 138.413C38.8371 139.086 38.2929 139.629 37.6231 139.629C36.9532 139.629 36.4091 139.086 36.4091 138.413C36.4091 137.741 36.9532 137.197 37.6231 137.197C38.2929 137.197 38.8371 137.741 38.8371 138.413Z" fill="#9871F5" stroke="#9871F5"/>
<path d="M50.8006 138.413C50.8006 139.086 50.2564 139.629 49.5866 139.629C48.9168 139.629 48.3726 139.086 48.3726 138.413C48.3726 137.741 48.9168 137.197 49.5866 137.197C50.2564 137.197 50.8006 137.741 50.8006 138.413Z" fill="#9871F5" stroke="#9871F5"/>
<path d="M62.7732 138.413C62.7732 139.086 62.229 139.629 61.5592 139.629C60.8894 139.629 60.3452 139.086 60.3452 138.413C60.3452 137.741 60.8894 137.197 61.5592 137.197C62.229 137.197 62.7732 137.741 62.7732 138.413Z" fill="#9871F5" stroke="#9871F5"/>
<path d="M187.624 328.189C187.624 328.862 187.08 329.406 186.41 329.406C185.74 329.406 185.196 328.862 185.196 328.189C185.196 327.517 185.74 326.973 186.41 326.973C187.08 326.973 187.624 327.517 187.624 328.189Z" fill="#9871F5" stroke="#9871F5"/>
<path d="M199.596 328.189C199.596 328.862 199.052 329.406 198.382 329.406C197.713 329.406 197.168 328.862 197.168 328.189C197.168 327.517 197.713 326.973 198.382 326.973C199.052 326.973 199.596 327.517 199.596 328.189Z" fill="#9871F5" stroke="#9871F5"/>
<path d="M211.56 328.189C211.56 328.862 211.016 329.406 210.346 329.406C209.676 329.406 209.132 328.862 209.132 328.189C209.132 327.517 209.676 326.973 210.346 326.973C211.016 326.973 211.56 327.517 211.56 328.189Z" fill="#9871F5" stroke="#9871F5"/>
<path d="M223.533 328.189C223.533 328.862 222.988 329.406 222.319 329.406C221.649 329.406 221.105 328.862 221.105 328.189C221.105 327.517 221.649 326.973 222.319 326.973C222.988 326.973 223.533 327.517 223.533 328.189Z" fill="#9871F5" stroke="#9871F5"/>
<path d="M235.496 328.189C235.496 328.862 234.952 329.406 234.282 329.406C233.612 329.406 233.068 328.862 233.068 328.189C233.068 327.517 233.612 326.973 234.282 326.973C234.952 326.973 235.496 327.517 235.496 328.189Z" fill="#9871F5" stroke="#9871F5"/>
<path d="M187.624 340.178C187.624 340.851 187.08 341.395 186.41 341.395C185.74 341.395 185.196 340.851 185.196 340.178C185.196 339.506 185.74 338.962 186.41 338.962C187.08 338.962 187.624 339.506 187.624 340.178Z" fill="#9871F5" stroke="#9871F5"/>
<path d="M199.596 340.178C199.596 340.851 199.052 341.395 198.382 341.395C197.713 341.395 197.168 340.851 197.168 340.178C197.168 339.506 197.713 338.962 198.382 338.962C199.052 338.962 199.596 339.506 199.596 340.178Z" fill="#9871F5" stroke="#9871F5"/>
<path d="M211.56 340.178C211.56 340.851 211.016 341.395 210.346 341.395C209.676 341.395 209.132 340.851 209.132 340.178C209.132 339.506 209.676 338.962 210.346 338.962C211.016 338.962 211.56 339.506 211.56 340.178Z" fill="#9871F5" stroke="#9871F5"/>
<path d="M223.533 340.178C223.533 340.851 222.988 341.395 222.319 341.395C221.649 341.395 221.105 340.851 221.105 340.178C221.105 339.506 221.649 338.962 222.319 338.962C222.988 338.962 223.533 339.506 223.533 340.178Z" fill="#9871F5" stroke="#9871F5"/>
<path d="M235.496 340.178C235.496 340.851 234.952 341.395 234.282 341.395C233.612 341.395 233.068 340.851 233.068 340.178C233.068 339.506 233.612 338.962 234.282 338.962C234.952 338.962 235.496 339.506 235.496 340.178Z" fill="#9871F5" stroke="#9871F5"/>
<path d="M490.93 28.3977C490.93 29.0702 490.386 29.6141 489.716 29.6141C489.046 29.6141 488.502 29.0701 488.502 28.3977C488.502 27.7253 489.046 27.1814 489.716 27.1814C490.386 27.1814 490.93 27.7253 490.93 28.3977Z" fill="#9871F5" stroke="#9871F5"/>
<path d="M502.894 28.3977C502.894 29.0702 502.35 29.6141 501.68 29.6141C501.01 29.6141 500.466 29.0702 500.466 28.3977C500.466 27.7253 501.01 27.1814 501.68 27.1814C502.35 27.1814 502.894 27.7253 502.894 28.3977Z" fill="#9871F5" stroke="#9871F5"/>
<path d="M514.866 28.3977C514.866 29.0702 514.322 29.6141 513.652 29.6141C512.983 29.6141 512.438 29.0702 512.438 28.3977C512.438 27.7253 512.983 27.1814 513.652 27.1814C514.322 27.1814 514.866 27.7253 514.866 28.3977Z" fill="#9871F5" stroke="#9871F5"/>
<path d="M490.93 40.3868C490.93 41.0592 490.386 41.6031 489.716 41.6031C489.046 41.6031 488.502 41.0592 488.502 40.3868C488.502 39.7143 489.046 39.1704 489.716 39.1704C490.386 39.1704 490.93 39.7143 490.93 40.3868Z" fill="#9871F5" stroke="#9871F5"/>
<path d="M502.894 40.3868C502.894 41.0592 502.35 41.6031 501.68 41.6031C501.01 41.6031 500.466 41.0592 500.466 40.3868C500.466 39.7143 501.01 39.1704 501.68 39.1704C502.35 39.1704 502.894 39.7143 502.894 40.3868Z" fill="#9871F5" stroke="#9871F5"/>
<path d="M514.866 40.3868C514.866 41.0592 514.322 41.6031 513.652 41.6031C512.983 41.6031 512.438 41.0592 512.438 40.3868C512.438 39.7143 512.983 39.1704 513.652 39.1704C514.322 39.1704 514.866 39.7143 514.866 40.3868Z" fill="#9871F5" stroke="#9871F5"/>
<path d="M177.582 5.71634C177.582 6.38877 177.038 6.93268 176.368 6.93268C175.698 6.93268 175.154 6.38875 175.154 5.71634C175.154 5.04394 175.698 4.5 176.368 4.5C177.038 4.5 177.582 5.04392 177.582 5.71634Z" fill="#9871F5" stroke="#9871F5"/>
<path d="M189.546 5.71634C189.546 6.38875 189.002 6.93268 188.332 6.93268C187.662 6.93268 187.118 6.38875 187.118 5.71634C187.118 5.04393 187.662 4.5 188.332 4.5C189.002 4.5 189.546 5.04393 189.546 5.71634Z" fill="#9871F5" stroke="#9871F5"/>
<path d="M201.518 5.71634C201.518 6.38878 200.974 6.93268 200.304 6.93268C199.635 6.93268 199.09 6.38875 199.09 5.71634C199.09 5.04393 199.635 4.5 200.304 4.5C200.974 4.5 201.518 5.04391 201.518 5.71634Z" fill="#9871F5" stroke="#9871F5"/>
<path d="M177.582 17.7054C177.582 18.3778 177.038 18.9217 176.368 18.9217C175.698 18.9217 175.154 18.3778 175.154 17.7054C175.154 17.033 175.698 16.489 176.368 16.489C177.038 16.489 177.582 17.0329 177.582 17.7054Z" fill="#9871F5" stroke="#9871F5"/>
<path d="M189.546 17.7054C189.546 18.3778 189.001 18.9217 188.332 18.9217C187.662 18.9217 187.118 18.3778 187.118 17.7054C187.118 17.0329 187.662 16.489 188.332 16.489C189.002 16.489 189.546 17.0329 189.546 17.7054Z" fill="#9871F5" stroke="#9871F5"/>
<path d="M201.518 17.7054C201.518 18.3778 200.974 18.9217 200.304 18.9217C199.635 18.9217 199.09 18.3778 199.09 17.7054C199.09 17.0329 199.635 16.489 200.304 16.489C200.974 16.489 201.518 17.0329 201.518 17.7054Z" fill="#9871F5" stroke="#9871F5"/>
<path d="M598.5 190.4C598.5 191.072 597.956 191.616 597.286 191.616C596.616 191.616 596.072 191.072 596.072 190.4C596.072 189.728 596.616 189.184 597.286 189.184C597.956 189.184 598.5 189.728 598.5 190.4Z" fill="#9871F5" stroke="#9871F5"/>
<path d="M598.5 202.389C598.5 203.061 597.956 203.605 597.286 203.605C596.616 203.605 596.072 203.061 596.072 202.389C596.072 201.717 596.616 201.173 597.286 201.173C597.956 201.173 598.5 201.717 598.5 202.389Z" fill="#9871F5" stroke="#9871F5"/>
<path d="M598.5 214.369C598.5 215.041 597.956 215.585 597.286 215.585C596.616 215.585 596.072 215.041 596.072 214.369C596.072 213.697 596.616 213.153 597.286 213.153C597.956 213.153 598.5 213.697 598.5 214.369Z" fill="#9871F5" stroke="#9871F5"/>
<path d="M598.5 226.358C598.5 227.031 597.956 227.575 597.286 227.575C596.616 227.575 596.072 227.031 596.072 226.358C596.072 225.686 596.616 225.142 597.286 225.142C597.956 225.142 598.5 225.686 598.5 226.358Z" fill="#9871F5" stroke="#9871F5"/>
<path d="M598.5 238.338C598.5 239.011 597.956 239.555 597.286 239.555C596.616 239.555 596.072 239.011 596.072 238.338C596.072 237.666 596.616 237.122 597.286 237.122C597.956 237.122 598.5 237.666 598.5 238.338Z" fill="#9871F5" stroke="#9871F5"/>
<path d="M598.5 250.327C598.5 251 597.956 251.544 597.286 251.544C596.616 251.544 596.072 251 596.072 250.327C596.072 249.655 596.616 249.111 597.286 249.111C597.956 249.111 598.5 249.655 598.5 250.327Z" fill="#9871F5" stroke="#9871F5"/>
<path d="M598.5 262.307C598.5 262.98 597.956 263.524 597.286 263.524C596.616 263.524 596.072 262.98 596.072 262.307C596.072 261.635 596.616 261.091 597.286 261.091C597.956 261.091 598.5 261.635 598.5 262.307Z" fill="#9871F5" stroke="#9871F5"/>
<path d="M586.527 190.4C586.527 191.072 585.983 191.616 585.313 191.616C584.643 191.616 584.099 191.072 584.099 190.4C584.099 189.728 584.643 189.184 585.313 189.184C585.983 189.184 586.527 189.728 586.527 190.4Z" fill="#9871F5" stroke="#9871F5"/>
<path d="M586.527 202.389C586.527 203.061 585.983 203.605 585.313 203.605C584.643 203.605 584.099 203.061 584.099 202.389C584.099 201.717 584.643 201.173 585.313 201.173C585.983 201.173 586.527 201.717 586.527 202.389Z" fill="#9871F5" stroke="#9871F5"/>
<path d="M586.527 214.369C586.527 215.041 585.983 215.585 585.313 215.585C584.643 215.585 584.099 215.041 584.099 214.369C584.099 213.697 584.643 213.153 585.313 213.153C585.983 213.153 586.527 213.697 586.527 214.369Z" fill="#9871F5" stroke="#9871F5"/>
<path d="M586.527 226.358C586.527 227.031 585.983 227.575 585.313 227.575C584.643 227.575 584.099 227.031 584.099 226.358C584.099 225.686 584.643 225.142 585.313 225.142C585.983 225.142 586.527 225.686 586.527 226.358Z" fill="#9871F5" stroke="#9871F5"/>
<path d="M586.527 238.338C586.527 239.011 585.983 239.555 585.313 239.555C584.643 239.555 584.099 239.011 584.099 238.338C584.099 237.666 584.643 237.122 585.313 237.122C585.983 237.122 586.527 237.666 586.527 238.338Z" fill="#9871F5" stroke="#9871F5"/>
<path d="M586.527 250.327C586.527 251 585.983 251.544 585.313 251.544C584.643 251.544 584.099 251 584.099 250.327C584.099 249.655 584.643 249.111 585.313 249.111C585.983 249.111 586.527 249.655 586.527 250.327Z" fill="#9871F5" stroke="#9871F5"/>
<path d="M586.527 262.307C586.527 262.98 585.983 263.524 585.313 263.524C584.643 263.524 584.099 262.98 584.099 262.307C584.099 261.635 584.643 261.091 585.313 261.091C585.983 261.091 586.527 261.635 586.527 262.307Z" fill="#9871F5" stroke="#9871F5"/>
<path d="M574.564 190.4C574.564 191.072 574.02 191.616 573.35 191.616C572.68 191.616 572.136 191.072 572.136 190.4C572.136 189.728 572.68 189.184 573.35 189.184C574.02 189.184 574.564 189.728 574.564 190.4Z" fill="#9871F5" stroke="#9871F5"/>
<path d="M574.564 202.389C574.564 203.061 574.02 203.605 573.35 203.605C572.68 203.605 572.136 203.061 572.136 202.389C572.136 201.717 572.68 201.173 573.35 201.173C574.02 201.173 574.564 201.717 574.564 202.389Z" fill="#9871F5" stroke="#9871F5"/>
<path d="M574.564 214.369C574.564 215.041 574.02 215.585 573.35 215.585C572.68 215.585 572.136 215.041 572.136 214.369C572.136 213.697 572.68 213.153 573.35 213.153C574.02 213.153 574.564 213.697 574.564 214.369Z" fill="#9871F5" stroke="#9871F5"/>
<path d="M574.564 226.358C574.564 227.031 574.02 227.575 573.35 227.575C572.68 227.575 572.136 227.031 572.136 226.358C572.136 225.686 572.68 225.142 573.35 225.142C574.02 225.142 574.564 225.686 574.564 226.358Z" fill="#9871F5" stroke="#9871F5"/>
<path d="M574.564 238.338C574.564 239.011 574.02 239.555 573.35 239.555C572.68 239.555 572.136 239.011 572.136 238.338C572.136 237.666 572.68 237.122 573.35 237.122C574.02 237.122 574.564 237.666 574.564 238.338Z" fill="#9871F5" stroke="#9871F5"/>
<path d="M574.564 250.327C574.564 251 574.02 251.544 573.35 251.544C572.68 251.544 572.136 251 572.136 250.327C572.136 249.655 572.68 249.111 573.35 249.111C574.02 249.111 574.564 249.655 574.564 250.327Z" fill="#9871F5" stroke="#9871F5"/>
<path d="M574.564 262.307C574.564 262.98 574.02 263.524 573.35 263.524C572.68 263.524 572.136 262.98 572.136 262.307C572.136 261.635 572.68 261.091 573.35 261.091C574.02 261.091 574.564 261.635 574.564 262.307Z" fill="#9871F5" stroke="#9871F5"/>
<path d="M562.591 190.4C562.591 191.072 562.047 191.616 561.377 191.616C560.707 191.616 560.163 191.072 560.163 190.4C560.163 189.728 560.707 189.184 561.377 189.184C562.047 189.184 562.591 189.728 562.591 190.4Z" fill="#9871F5" stroke="#9871F5"/>
<path d="M562.591 202.389C562.591 203.061 562.047 203.605 561.377 203.605C560.707 203.605 560.163 203.061 560.163 202.389C560.163 201.717 560.707 201.173 561.377 201.173C562.047 201.173 562.591 201.717 562.591 202.389Z" fill="#9871F5" stroke="#9871F5"/>
<path d="M562.591 214.369C562.591 215.041 562.047 215.585 561.377 215.585C560.707 215.585 560.163 215.041 560.163 214.369C560.163 213.697 560.707 213.153 561.377 213.153C562.047 213.153 562.591 213.697 562.591 214.369Z" fill="#9871F5" stroke="#9871F5"/>
<path d="M562.591 226.358C562.591 227.031 562.047 227.575 561.377 227.575C560.707 227.575 560.163 227.031 560.163 226.358C560.163 225.686 560.707 225.142 561.377 225.142C562.047 225.142 562.591 225.686 562.591 226.358Z" fill="#9871F5" stroke="#9871F5"/>
<path d="M562.591 238.338C562.591 239.011 562.047 239.555 561.377 239.555C560.707 239.555 560.163 239.011 560.163 238.338C560.163 237.666 560.707 237.122 561.377 237.122C562.047 237.122 562.591 237.666 562.591 238.338Z" fill="#9871F5" stroke="#9871F5"/>
<path d="M562.591 250.327C562.591 251 562.047 251.544 561.377 251.544C560.707 251.544 560.163 251 560.163 250.327C560.163 249.655 560.707 249.111 561.377 249.111C562.047 249.111 562.591 249.655 562.591 250.327Z" fill="#9871F5" stroke="#9871F5"/>
<path d="M562.591 262.307C562.591 262.98 562.047 263.524 561.377 263.524C560.707 263.524 560.163 262.98 560.163 262.307C560.163 261.635 560.707 261.091 561.377 261.091C562.047 261.091 562.591 261.635 562.591 262.307Z" fill="#9871F5" stroke="#9871F5"/>
<path d="M452.432 265.58H141.669C136.059 265.58 131.5 260.986 131.5 255.312V63.7686C131.5 58.0946 136.059 53.5 141.669 53.5H452.441C458.051 53.5 462.61 58.0946 462.61 63.7686V255.311C462.601 260.986 458.042 265.58 452.432 265.58Z" fill="#04D361" stroke="#04D361"/>
<path d="M451.983 257.006H142.115C137.31 257.006 133.407 253.098 133.407 248.286V63.8107C133.407 58.9987 137.31 55.0906 142.115 55.0906H451.983C456.788 55.0906 460.691 58.9987 460.691 63.8107V248.286C460.691 253.107 456.788 257.006 451.983 257.006Z" fill="white"/>
<path d="M350.074 72.3486V202.503C350.074 206.429 346.901 209.607 342.98 209.607H147.277C145.517 209.607 143.903 208.968 142.663 207.899C141.149 206.594 140.182 204.667 140.182 202.503V72.3486C140.182 68.4222 143.365 65.2446 147.277 65.2446H342.98C344.74 65.2446 346.363 65.8838 347.594 66.9521C349.116 68.2579 350.074 70.1845 350.074 72.3486Z" fill="#E6E6F0"/>
<path d="M446.882 120.88H365.873C361.952 120.88 358.779 117.703 358.779 113.776V72.3486C358.779 68.4222 361.952 65.2446 365.873 65.2446H446.882C450.803 65.2446 453.977 68.4222 453.977 72.3486V113.776C453.977 117.703 450.794 120.88 446.882 120.88Z" fill="#E6E6F0"/>
<path d="M446.882 186.373H365.873C361.952 186.373 358.779 183.196 358.779 179.269V137.842C358.779 133.915 361.952 130.738 365.873 130.738H446.882C450.803 130.738 453.977 133.915 453.977 137.842V179.269C453.977 183.196 450.794 186.373 446.882 186.373Z" fill="#E6E6F0"/>
<path d="M446.882 248.429H365.873C361.952 248.429 358.779 245.251 358.779 241.325V203.842C358.779 199.915 361.952 196.738 365.873 196.738H446.882C450.803 196.738 453.977 199.915 453.977 203.842V241.325C453.977 245.251 450.794 248.429 446.882 248.429Z" fill="#E6E6F0"/>
<path d="M247.207 223.577H142.763C141.341 223.577 140.192 222.427 140.192 221.002C140.192 219.578 141.341 218.427 142.763 218.427H247.207C248.63 218.427 249.779 219.578 249.779 221.002C249.779 222.418 248.63 223.577 247.207 223.577Z" fill="#E6E6F0"/>
<path d="M253.236 247.738H142.867C141.364 247.738 140.15 246.621 140.15 245.239V235.236C140.15 233.854 141.364 232.738 142.867 232.738H253.236C254.739 232.738 255.953 233.854 255.953 235.236V245.239C255.953 246.621 254.739 247.738 253.236 247.738Z" fill="#E6E6F0"/>
<path d="M324.533 223.577H347.502C348.925 223.577 350.074 222.427 350.074 221.002C350.074 219.578 348.925 218.427 347.502 218.427H324.533C323.11 218.427 321.961 219.578 321.961 221.002C321.961 222.418 323.11 223.577 324.533 223.577Z" fill="#E6E6F0"/>
<path d="M285.569 223.577H308.539C309.961 223.577 311.11 222.427 311.11 221.002C311.11 219.578 309.961 218.427 308.539 218.427H285.569C284.146 218.427 282.997 219.578 282.997 221.002C282.988 222.418 284.146 223.577 285.569 223.577Z" fill="#E6E6F0"/>
<path d="M301.946 247.848H347.502C348.925 247.848 350.074 246.697 350.074 245.273V234.964C350.074 233.539 348.925 232.389 347.502 232.389H301.946C300.523 232.389 299.375 233.539 299.375 234.964V245.273C299.375 246.697 300.523 247.848 301.946 247.848Z" fill="#E6E6F0"/>
<g opacity="0.24">
<path d="M406.084 107.878C414.016 107.878 420.446 101.439 420.446 93.4962C420.446 85.5535 414.016 79.1147 406.084 79.1147C398.153 79.1147 391.723 85.5535 391.723 93.4962C391.723 101.439 398.153 107.878 406.084 107.878Z" fill="#E6E6F0" stroke="#6842C2" stroke-width="2" stroke-miterlimit="10"/>
<path d="M411.969 92.0781L403.772 87.339C402.869 86.8186 401.747 87.4669 401.747 88.5078V97.9859C401.747 99.0268 402.869 99.6751 403.772 99.1546L411.969 94.4156C412.872 93.8951 412.872 92.5985 411.969 92.0781Z" fill="#E6E6F0" stroke="#6842C2" stroke-width="2" stroke-miterlimit="10"/>
</g>
<g opacity="0.24">
<path d="M406.084 172.501C414.016 172.501 420.446 166.062 420.446 158.119C420.446 150.177 414.016 143.738 406.084 143.738C398.153 143.738 391.723 150.177 391.723 158.119C391.723 166.062 398.153 172.501 406.084 172.501Z" fill="#E6E6F0" stroke="#6842C2" stroke-width="2" stroke-miterlimit="10"/>
<path d="M411.969 156.701L403.772 151.962C402.869 151.442 401.747 152.09 401.747 153.131V162.609C401.747 163.65 402.869 164.298 403.772 163.778L411.969 159.039C412.872 158.518 412.872 157.222 411.969 156.701Z" fill="#E6E6F0" stroke="#6842C2" stroke-width="2" stroke-miterlimit="10"/>
</g>
<g opacity="0.24">
<path d="M406.084 236.501C414.016 236.501 420.446 230.062 420.446 222.119C420.446 214.177 414.016 207.738 406.084 207.738C398.153 207.738 391.723 214.177 391.723 222.119C391.723 230.062 398.153 236.501 406.084 236.501Z" fill="#E6E6F0" stroke="#6842C2" stroke-width="2" stroke-miterlimit="10"/>
<path d="M411.969 220.701L403.772 215.962C402.869 215.442 401.747 216.09 401.747 217.131V226.609C401.747 227.65 402.869 228.298 403.772 227.778L411.969 223.039C412.872 222.518 412.872 221.222 411.969 220.701Z" fill="#E6E6F0" stroke="#6842C2" stroke-width="2" stroke-miterlimit="10"/>
</g>
<path d="M347.594 66.9521L142.663 207.899C141.149 206.594 140.182 204.667 140.182 202.503V72.3486C140.182 68.4222 143.365 65.2446 147.277 65.2446H342.98C344.739 65.2446 346.363 65.8838 347.594 66.9521Z" fill="#F2F2FA"/>
<mask id="mask0" mask-type="alpha" maskUnits="userSpaceOnUse" x="140" y="36" width="211" height="174">
<path d="M350.33 44.5566V201.325C350.33 206.054 347.162 209.881 343.248 209.881H147.894C146.137 209.881 144.526 209.112 143.288 207.825C141.777 206.252 140.812 203.931 140.812 201.325V44.5566C140.812 39.8274 143.989 36 147.894 36H343.248C345.005 36 346.625 36.7699 347.854 38.0567C349.374 39.6294 350.33 41.95 350.33 44.5566Z" fill="#A3D1DE"/>
</mask>
<g mask="url(#mask0)">
<path d="M333.825 146.705C333.825 146.705 345.524 137.455 345.834 134.807C346.417 129.822 348.205 125.914 358.91 122.608C358.91 122.608 359.74 124.197 358.253 125.923C356.63 127.795 355.345 128.452 355.345 128.452C355.345 128.452 358.18 129.539 362.402 126.233C366.624 122.937 368.402 120.07 370.18 120.773C370.18 120.773 372.278 118.874 373.272 119.175C373.272 119.175 374.001 119.394 373.864 120.179C375.515 119.924 375.177 124.69 372.241 128.562C368.019 134.132 362.749 138.925 358.436 140.505C355.199 141.692 341.822 155.325 341.822 155.325L333.825 146.705Z" fill="#FFCAD0"/>
<path d="M297.697 193.894C292.59 195.62 264.259 151.992 264.259 151.992C253.307 139.373 263.137 97.8083 273.049 112.381C273.049 112.381 298.827 159.078 301.609 162.84C305.065 167.515 316.563 187.512 297.697 193.894Z" fill="#04D361"/>
<path d="M265.772 237.203H191.073C191.073 237.203 185.338 234.674 190.325 223.644C192.195 219.526 191.383 208.915 191.073 194.351C190.444 165.552 181.909 117.751 192.441 112.272C198.751 108.976 212.155 104.638 221.885 101.671C222.468 101.507 223.034 101.333 223.59 101.169C229.271 99.4703 233.329 98.3472 233.329 98.3472C233.329 98.3472 238.034 99.032 247.59 101.863C248.11 102.018 248.648 102.182 249.204 102.347C251.693 103.104 254.465 103.99 257.548 105.04C274.253 110.729 272.374 108.702 274.59 129.594C276.359 146.276 265.772 237.203 265.772 237.203Z" fill="#04D361"/>
<path d="M249.204 102.337C248.985 105.88 247.399 109.012 244.982 111.304C242.529 113.651 239.201 115.075 235.572 115.075C228.085 115.075 222.031 109.076 221.876 101.671C222.459 101.507 223.025 101.333 223.581 101.169C229.262 99.4703 233.32 98.3472 233.32 98.3472C233.32 98.3472 238.025 99.032 247.581 101.863C248.101 102.009 248.648 102.173 249.204 102.337Z" fill="#F2F2FA"/>
<path d="M247.563 72.4331L246.387 95.1877L246.049 101.68C245.912 104.437 244.7 106.894 242.821 108.665C240.961 110.437 238.444 111.514 235.69 111.514C229.864 111.514 225.168 106.702 225.323 100.876L225.614 89.289L226.107 70.0408L247.563 72.4331Z" fill="#FBD5D9"/>
<path d="M247.563 76.9803L246.387 98.4109C236.32 98.8126 228.979 94.7219 225.615 89.2615L226.107 74.6062L247.563 76.9803Z" fill="#FFA4AD"/>
<path d="M219.423 50.1533C219.423 50.1533 209.775 48.948 210.879 61.0558C211.736 70.4426 224.474 82.9704 224.474 82.9704C224.474 82.9704 232.517 54.6824 219.423 50.1533Z" fill="#8F4A3F"/>
<path d="M258.824 58.8735C258.168 60.371 257.156 61.6768 256.326 63.0829C255.505 64.4891 254.849 66.0962 255.031 67.7215C254.867 65.0826 253.125 62.8638 251.621 60.6997C250.116 58.5265 248.748 55.8968 249.469 53.3584C250.153 50.9204 254.557 47.0762 257.238 48.6559C260.219 50.409 259.991 56.2164 258.824 58.8735Z" fill="#0E1235"/>
<path d="M255.551 59.3574C255.551 59.3574 256.298 66.7718 255.259 74.9807C254.055 84.4679 254.484 95.6078 240.523 96.3565C225.624 97.1509 220.69 80.4502 220.69 80.4502C220.69 80.4502 212.776 78.971 212.238 73.6202C211.7 68.2602 217.225 67.9589 219.031 69.4655C219.031 69.4655 221.073 49.4959 239.502 49.4959C255.76 49.4776 255.551 59.3574 255.551 59.3574Z" fill="#FBD5D9"/>
<path d="M238.043 74.5969C238.043 75.4094 237.386 76.0759 236.566 76.0759C235.745 76.0759 235.089 75.4186 235.089 74.5969C235.089 73.7844 235.745 73.1179 236.566 73.1179C237.386 73.1179 238.043 73.7844 238.043 74.5969Z" fill="#9A5449"/>
<path d="M251.392 74.5969C251.392 75.4094 250.736 76.0759 249.915 76.0759C249.095 76.0759 248.438 75.4186 248.438 74.5969C248.438 73.7844 249.095 73.1179 249.915 73.1179C250.736 73.1179 251.392 73.7844 251.392 74.5969Z" fill="#9A5449"/>
<path d="M231.195 69.4564C231.195 69.4564 233.383 65.8497 238.043 67.1463" stroke="#561E15" stroke-width="1.0274" stroke-miterlimit="10" stroke-linecap="round" stroke-linejoin="round"/>
<path d="M246.077 67.0914C246.077 67.0914 249.441 64.0142 252.751 67.3836" stroke="#561E15" stroke-width="1.0274" stroke-miterlimit="10" stroke-linecap="round" stroke-linejoin="round"/>
<path d="M243.122 70.7529C243.122 70.7529 244.718 74.8345 246.076 77.373C247.435 79.9114 243.423 81.0436 243.423 81.0436" stroke="#D66D78" stroke-width="0.7706" stroke-miterlimit="10" stroke-linecap="round" stroke-linejoin="round"/>
<path d="M237.779 85.6091C237.779 85.6091 241.07 88.805 245.301 86.851" stroke="#D66D78" stroke-width="0.7706" stroke-miterlimit="10" stroke-linecap="round" stroke-linejoin="round"/>
<path d="M218.766 75.3361C218.766 75.3361 218.72 70.744 215.292 71.9947" stroke="#D66D78" stroke-width="0.7706" stroke-miterlimit="10" stroke-linecap="round" stroke-linejoin="round"/>
<path d="M223.289 53.9883C223.289 53.9883 231.669 62.535 227.083 65.8039C221.976 69.4472 221.183 74.5971 221.183 74.5971C221.183 74.5971 221.292 72.78 219.022 69.4563C216.751 66.1235 211.8 54.3079 223.289 53.9883Z" fill="#8F4A3F"/>
<path d="M297.697 193.895C303.788 197.867 350.083 148.349 350.083 148.349L341.867 137.583C341.867 137.583 306.67 159.699 301.609 162.84C294.314 167.36 277.207 180.545 297.697 193.895Z" fill="#04D361"/>
<path d="M273.077 165.104C273.077 165.104 275.147 142.468 274.791 135.282C274.791 135.282 277.736 154.284 277.809 171.843L273.077 165.104Z" fill="#03A14A"/>
<path d="M194.848 157.389C194.848 157.389 205.69 110.902 194.092 111.45C194.092 111.45 190.307 111.907 182.903 123.412C177.724 131.456 172.052 145.399 161.712 168.081C156.824 178.801 150.715 193.31 162.058 194.086C168.195 194.506 174.633 191.146 178.426 184.088C185.374 171.158 194.848 157.389 194.848 157.389Z" fill="#04D361"/>
<path d="M204.551 215.252L263.557 201.327C263.548 201.327 244.991 215.252 204.551 215.252Z" fill="#03A14A"/>
<path d="M188.702 166.73C188.702 166.73 198.222 149.846 203.283 141.61L191.401 206.194C191.401 206.194 190.243 179.814 188.702 166.73Z" fill="#03A14A"/>
<path d="M226.645 188.726L191.356 205.226L193.171 188.261L226.645 188.726Z" fill="#03A14A"/>
<path d="M232.425 185.904L232.425 185.904L238.252 154.045L238.252 154.044C238.556 152.366 240.016 151.15 241.727 151.15H254.11C256.314 151.15 257.984 153.15 257.585 155.326L257.585 155.326L251.758 187.183C251.446 188.865 249.984 190.08 248.283 190.08H235.9C233.696 190.08 232.026 188.08 232.425 185.904Z" fill="#04D361" stroke="#04D361"/>
<path d="M249.815 191.931H237.432C234.915 191.931 233.009 189.648 233.465 187.165L239.292 155.306C239.638 153.389 241.307 152.001 243.259 152.001H255.642C258.158 152.001 260.064 154.284 259.608 156.767L253.781 188.626C253.435 190.543 251.766 191.931 249.815 191.931Z" fill="white"/>
<path d="M240.613 163.29L240.614 163.286L242.037 155.506L242.037 155.506L242.037 155.502C242.058 155.381 242.166 155.286 242.302 155.286H244.517C244.689 155.286 244.815 155.441 244.783 155.605L244.782 155.61L243.36 163.389L243.36 163.389L243.359 163.393C243.338 163.515 243.23 163.609 243.095 163.609H240.879C240.707 163.609 240.582 163.455 240.613 163.29Z" fill="#04D361" stroke="#04D361"/>
<path d="M215.01 174.701C215.01 174.701 221.046 174.5 225.669 173.085C227.657 172.473 231.596 171.761 232.9 169.871C234.213 167.962 234.095 163.844 235.408 163.671C236.42 163.534 238.444 166.757 237.925 168.93C237.414 171.058 237.168 172.236 236.393 173.185C236.137 173.505 244.645 174.108 250.034 172.921C253.727 172.108 252.633 175.769 250.125 176.92C250.125 176.92 251.019 179.157 248.402 179.915C248.402 179.915 248.429 182.901 245.931 183.038C245.648 183.732 245.165 185.211 243.004 185.741C239.858 186.517 235.107 186.809 230.32 186.38C227.885 186.161 216.651 188.133 216.651 188.133L215.01 174.701Z" fill="#FFCAD0"/>
<path d="M161.693 194.26C170.31 195.767 221.675 189.959 221.675 189.959L220.398 171.962C220.398 171.962 178.544 173.916 172.964 173.414C154.508 171.779 150.97 192.388 161.693 194.26Z" fill="#04D361"/>
<path d="M225.323 40.419C226.207 39.5333 227.192 38.5928 228.432 38.4558C229.672 38.3188 231.086 39.4785 230.675 40.6655C234.897 38.8302 239.31 37.4605 243.824 36.5839C244.955 36.3648 246.177 36.1822 247.225 36.6844C248.265 37.1866 248.912 38.6384 248.201 39.5424C250.39 40.3642 252.815 39.8255 255.14 39.5515C257.466 39.2776 260.119 39.3963 261.697 41.1221C263.165 42.72 263.192 45.1306 263.146 47.3038C263.074 50.2805 263.001 53.2755 262.326 56.1792C261.323 60.4708 258.988 64.4337 255.715 67.383C256.691 64.0411 254.949 60.3339 252.204 58.1881C249.469 56.0331 245.94 55.1839 242.484 54.7913C238.344 54.3165 234.131 54.426 230.01 55.1017C226.9 55.6131 222.459 57.8319 219.368 56.4258C212.52 53.3212 222.678 43.067 225.323 40.419Z" fill="#8F4A3F"/>
</g>
<path d="M331.18 78.8955H288.305C285.022 78.8955 282.359 76.2293 282.359 72.9421V54.9356C282.359 51.6485 285.022 48.9822 288.305 48.9822H331.18C334.463 48.9822 337.126 51.6485 337.126 54.9356V72.9421C337.126 76.2293 334.463 78.8955 331.18 78.8955Z" fill="#04D361"/>
<path d="M291.533 76.9599V85.1596L300.305 76.3755L291.533 76.9599Z" fill="#04D361"/>
<path d="M294.952 67.363C296.841 67.363 298.372 65.8299 298.372 63.9388C298.372 62.0477 296.841 60.5146 294.952 60.5146C293.064 60.5146 291.533 62.0477 291.533 63.9388C291.533 65.8299 293.064 67.363 294.952 67.363Z" fill="#E6E6F0"/>
<path d="M309.742 67.363C311.631 67.363 313.162 65.8299 313.162 63.9388C313.162 62.0477 311.631 60.5146 309.742 60.5146C307.854 60.5146 306.323 62.0477 306.323 63.9388C306.323 65.8299 307.854 67.363 309.742 67.363Z" fill="#E6E6F0"/>
<path d="M324.533 67.363C326.421 67.363 327.952 65.8299 327.952 63.9388C327.952 62.0477 326.421 60.5146 324.533 60.5146C322.644 60.5146 321.113 62.0477 321.113 63.9388C321.113 65.8299 322.644 67.363 324.533 67.363Z" fill="#E6E6F0"/>
<path d="M459.805 317.92L457.863 341.578H467.939L473.173 317.92H459.805Z" fill="#FEC9CF"/>
<path d="M469.033 336.629C469.033 336.629 473.41 343.706 470.128 344.966C466.845 346.226 445.234 346.335 439.899 345.541C434.565 344.738 451.799 337.424 455.738 336.273C459.687 335.123 460.954 341.122 469.033 336.629Z" fill="#6842C2"/>
<path d="M512.784 317.92L514.717 341.578H504.641L499.416 317.92H512.784Z" fill="#FEC9CF"/>
<path d="M503.547 336.629C503.547 336.629 499.17 343.706 502.453 344.966C505.736 346.226 527.347 346.335 532.681 345.541C538.015 344.738 520.781 337.424 516.842 336.273C512.903 335.123 511.626 341.122 503.547 336.629Z" fill="#6842C2"/>
<path d="M457.781 188.56L453.213 330.411H474.486L479.073 235.932L497.301 333.123L520.471 329.26C520.471 329.26 499.553 223.24 495.997 188.569H457.781V188.56Z" fill="#1A1ADF"/>
<path d="M478.095 242.438L477.372 227.138L478.57 235.938L478.095 242.438Z" fill="#194248" stroke="#C9C9D4"/>
<path d="M489.158 188.56L513.778 330.055" stroke="#C9C9D4" stroke-miterlimit="10" stroke-linecap="round" stroke-linejoin="round"/>
<path d="M484.033 84C488.574 84.0091 493.398 86.3923 494.93 90.6748C496.116 93.9711 495.222 97.861 496.881 100.947C498.103 103.23 500.547 104.7 501.65 107.038C503.93 111.895 499.489 117.666 500.903 122.834C502.207 127.619 508.125 130.358 508.617 135.298C508.936 138.449 506.72 141.471 503.866 142.841C501.021 144.219 497.684 144.21 494.565 143.69C486.915 142.402 479.711 138.202 471.96 138.604C468.769 138.768 465.431 139.699 462.477 138.467C460.371 137.59 458.848 135.737 457.507 133.892C455.966 131.774 454.489 129.363 454.635 126.752C454.845 122.917 458.319 120.232 460.398 117.009C462.523 113.712 463.416 109.594 462.824 105.714C460.006 87.2689 470.365 87.835 471.687 87.8077C472.9 87.7803 476.93 85.3057 478.526 84.8401C480.331 84.3196 482.173 84 484.033 84Z" fill="#D38D00"/>
<path d="M435.367 161.385C430.981 157.888 413.145 146.073 412.972 144.42C412.644 141.315 411.559 138.859 404.911 136.741C404.911 136.741 404.383 137.727 405.303 138.813C406.297 139.991 407.1 140.402 407.1 140.402C407.1 140.402 405.331 141.06 402.723 138.978C400.115 136.896 399.03 135.097 397.917 135.526C397.917 135.526 396.623 134.33 396.003 134.513C396.003 134.513 395.547 134.64 395.629 135.134C394.598 134.96 394.781 137.928 396.577 140.366C399.167 143.863 403.735 146.529 406.416 147.543C408.422 148.301 421.58 167.786 430.398 169.896C432.933 170.48 437.41 163.011 435.367 161.385Z" fill="#FCDDC6"/>
<path d="M449.164 144.101C449.164 144.101 429.45 157.87 427.544 161.294C425.638 164.719 427.061 173.859 435.842 167.987C444.623 162.116 458.483 151.46 458.483 151.46L449.164 144.101Z" fill="#FCDDC6"/>
<path d="M459.295 131.564C459.295 131.564 453.878 132.933 450.267 137.234C447.24 140.841 442.361 146.648 442.361 146.648L457.316 158.281C457.325 158.272 460.973 137.125 459.295 131.564Z" fill="#8F2424"/>
<path d="M495.997 188.56H457.772C457.772 188.56 457.927 181.995 455.802 171.795C453.668 161.605 454.735 156.272 456.86 150.949C458.994 145.626 455.191 133.317 459.295 131.564C460.963 130.851 463.863 129.701 466.708 128.596C467.428 128.322 468.14 128.039 468.823 127.774C472.124 126.496 474.906 125.437 474.906 125.437H481.79C481.79 125.437 486.532 127.007 491.401 128.952C492.039 129.208 492.687 129.473 493.325 129.738C493.325 129.747 493.325 129.747 493.325 129.747C495.778 130.778 498.121 131.865 499.717 132.86C504.887 136.056 495.997 188.56 495.997 188.56Z" fill="#E33D3D"/>
<path d="M472.589 108.499L473.319 122.67L473.529 126.715C473.62 128.432 474.367 129.966 475.535 131.071C476.693 132.176 478.261 132.842 479.975 132.842C483.605 132.842 486.523 129.847 486.431 126.222L486.249 119.009L485.939 107.02L472.589 108.499Z" fill="#FFDFC8"/>
<path d="M472.589 108.499L473.319 121.848C479.583 122.104 484.161 119.547 486.258 116.151L485.948 107.02L472.589 108.499Z" fill="#DA9F74"/>
<path d="M467.611 97.5232C467.611 97.5232 467.146 102.144 467.793 107.248C468.541 113.156 469.197 119.922 476.975 120.561C486.24 121.319 489.331 110.654 489.331 110.654C489.331 110.654 493.635 109.649 494.164 106.709C494.693 103.76 491.483 102.874 490.361 103.805C490.361 103.805 489.085 91.3689 477.614 91.3689C467.474 91.3689 467.611 97.5232 467.611 97.5232Z" fill="#FFDFC8"/>
<path d="M493.325 129.738C493.325 129.747 493.325 129.747 493.325 129.738C485.483 139.307 476.237 138.859 476.237 138.859C468.942 137.262 466.708 128.596 466.708 128.596C467.428 128.322 468.14 128.039 468.824 127.774C472.125 126.496 474.906 125.437 474.906 125.437H481.79C481.79 125.437 486.532 127.007 491.401 128.952C492.04 129.208 492.687 129.473 493.325 129.738Z" fill="#04D361"/>
<path d="M491.401 128.952C483.404 137.654 476.474 136.741 476.474 136.741C469.024 133.883 468.823 127.774 468.823 127.774C472.124 126.496 474.905 125.437 474.905 125.437H481.79C481.79 125.437 486.532 127.007 491.401 128.952Z" fill="#FCDDC6"/>
<path d="M471.605 88.6843C471.605 88.6843 472.671 97.6784 466.899 100.646C466.899 100.646 464.009 89.7527 471.605 88.6843Z" fill="#D38D00"/>
<path d="M469.854 89.5424C469.854 89.5424 471.905 97.3769 476.994 97.8334C482.082 98.29 481.179 102.417 485.684 102.892C488.364 103.175 489.559 105.969 489.559 105.969C489.559 105.969 489.951 103.193 492.377 102.207C494.82 101.221 486.641 80.4844 469.854 89.5424Z" fill="#D38D00"/>
<path d="M478.489 108.398C478.489 108.891 478.881 109.284 479.374 109.284C479.866 109.284 480.258 108.891 480.258 108.398C480.258 107.905 479.866 107.512 479.374 107.512C478.89 107.512 478.489 107.914 478.489 108.398Z" fill="#60423D"/>
<path d="M470.484 108.397C470.484 108.89 470.876 109.283 471.368 109.283C471.861 109.283 472.253 108.89 472.253 108.397C472.253 107.904 471.851 107.512 471.368 107.512C470.876 107.512 470.484 107.913 470.484 108.397Z" fill="#60423D"/>
<path d="M482.601 105.312C482.601 105.312 481.288 103.148 478.489 103.924" stroke="#561E15" stroke-miterlimit="10" stroke-linecap="round" stroke-linejoin="round"/>
<path d="M473.674 103.897C473.674 103.897 471.65 102.052 469.672 104.07" stroke="#561E15" stroke-miterlimit="10" stroke-linecap="round" stroke-linejoin="round"/>
<path d="M475.443 106.097C475.443 106.097 474.486 108.544 473.674 110.069C472.862 111.594 475.27 112.269 475.27 112.269" stroke="#DA9F74" stroke-width="0.75" stroke-miterlimit="10" stroke-linecap="round" stroke-linejoin="round"/>
<path d="M480.75 114.005C480.75 114.005 479.191 116.278 476.474 115.63" stroke="#DA9F74" stroke-width="0.75" stroke-miterlimit="10" stroke-linecap="round" stroke-linejoin="round"/>
<path d="M490.334 107.777C490.334 107.777 490.362 105.02 492.413 105.778" stroke="#DA9F74" stroke-width="0.75" stroke-miterlimit="10" stroke-linecap="round" stroke-linejoin="round"/>
<path d="M458.556 179.447H423.541C422.848 179.447 422.282 178.881 422.282 178.187C422.282 177.493 422.848 176.927 423.541 176.927H458.556C459.249 176.927 459.815 177.493 459.815 178.187C459.805 178.89 459.249 179.447 458.556 179.447Z" fill="#04D361"/>
<path d="M419.603 149.66L419.603 149.66L419.603 149.658C419.39 148.815 420.036 147.988 420.905 147.988H452.446C453.066 147.988 453.602 148.408 453.748 149.004L453.748 149.006L460.543 176.436H426.238L419.603 149.66Z" fill="#04D361" stroke="#04D361"/>
<path d="M458.757 176.936H423.422L416.693 149.78C416.401 148.621 417.285 147.488 418.48 147.488H450.021C450.869 147.488 451.608 148.064 451.808 148.885L458.757 176.936Z" fill="white"/>
<path d="M485.656 179.447H459.158C458.51 179.447 457.981 178.917 457.981 178.269V178.114C457.981 177.466 458.51 176.936 459.158 176.936H485.656C486.304 176.936 486.833 177.466 486.833 178.114V178.269C486.842 178.927 486.313 179.447 485.656 179.447Z" fill="#04D361"/>
<path d="M438.548 160.67L438.548 160.671C439.14 162.206 438.587 163.615 437.639 163.988C436.696 164.35 435.342 163.676 434.749 162.137C434.156 160.599 434.713 159.184 435.657 158.821C436.601 158.457 437.955 159.123 438.548 160.67Z" fill="#04D361" stroke="#04D361"/>
<path d="M497.93 176.936L495.632 147.114L500.046 159.669L497.93 176.936Z" fill="#47248F"/>
<path d="M498.231 150.145C498.231 150.145 503.684 179.493 505.033 184.296C505.909 187.4 512.273 189.519 514.27 185.41C514.708 184.506 514.608 182.999 514.562 181.465C514.252 171.978 507.623 147.835 507.623 147.835L498.231 150.145Z" fill="#FCDDC6"/>
<path d="M499.726 132.86C499.726 132.86 502.982 134.531 505.717 139.252C508.453 143.973 512.228 152.3 511.991 154.318C510.568 158.199 499.334 162.217 499.334 162.217C499.334 162.217 491.83 137.517 499.726 132.86Z" fill="#E33D3D"/>
<path d="M506.027 178.625C506.027 178.625 488.711 178.242 485.428 176.288C480.979 173.631 479.948 174.781 477.368 174.142C473.228 173.11 473.684 173.95 473.684 173.95C473.684 173.95 473.875 176.352 477.076 176.653C478.69 176.808 481.106 177.493 480.595 177.886C480.595 177.886 467.757 179.228 465.176 179.456C462.595 179.684 463.854 181.675 465.823 182.132C465.823 182.132 467 183.62 468.906 183.163C468.906 183.163 468.486 184.003 473.428 184.003C478.371 184.003 483.331 181.374 485.839 182.515C488.346 183.656 501.887 188.907 510.477 187.692C514.58 187.108 514.608 185.136 514.608 183.054C514.608 179.447 511.945 178.99 506.027 178.625Z" fill="#FCDDC6"/>
<path d="M142.705 318.882L136.988 342.541H126.912L129.338 318.882H142.705Z" fill="#BC8567"/>
<path d="M125.818 337.592C125.818 337.592 121.441 344.668 124.724 345.928C128.007 347.188 149.618 347.298 154.952 346.503C160.286 345.7 143.052 338.386 139.113 337.235C135.174 336.085 133.897 342.084 125.818 337.592Z" fill="#6842C2"/>
<path d="M110.973 318.882L107.517 342.541H97.4406L97.6047 318.882H110.973Z" fill="#BC8567"/>
<path d="M96.347 337.592C96.347 337.592 91.9701 344.668 95.2528 345.928C98.5354 347.188 120.146 347.298 125.481 346.503C130.815 345.7 113.581 338.386 109.642 337.235C105.703 336.085 104.426 342.084 96.347 337.592Z" fill="#6842C2"/>
<path d="M94.04 204.461L94.7877 330.707H110.782L122.08 237.953L134.955 275.592L125.317 330.716H142.715C142.715 330.716 158.007 283.079 157.387 273.729C156.767 264.37 139.113 200.616 139.113 200.616L94.04 204.461Z" fill="#D8D8E3"/>
<path d="M124.944 244.816L122.579 237.894L123.681 226.693L124.944 244.816Z" fill="#C9C9D4" stroke="#C9C9D4"/>
<path d="M103.068 202.936L102.146 330.716" stroke="#C9C9D4" stroke-miterlimit="10"/>
<path d="M152.043 146.643C152.043 146.643 162.375 166.211 162.603 172.219C162.83 178.227 156.22 176.885 152.8 171.47C149.381 166.046 143.909 150.67 143.909 150.67L152.043 146.643Z" fill="#BC8567"/>
<path d="M153.976 148.277C153.976 148.277 151.013 153.555 143.909 156.778C142.441 157.445 141.201 155.682 140.28 153.591C139.213 151.153 138.593 148.277 138.593 148.277C138.593 148.277 130.45 123.048 137.627 123.952C137.627 123.952 143.736 124.381 148.223 133.238C149.399 135.548 151.232 140.205 152.764 144.625C153.201 145.885 153.612 147.117 153.976 148.277Z" fill="#47248F"/>
<path d="M153.976 148.277C153.976 148.277 151.013 153.555 143.909 156.778C142.441 157.445 141.201 155.682 140.28 153.591C143.061 152.34 148.323 149.528 152.764 144.625C153.201 145.885 153.612 147.118 153.976 148.277Z" fill="#04D361"/>
<path d="M139.478 201.995C134.964 207.127 105.247 206.369 94.0308 204.461C92.0612 204.123 90.1189 203.365 93.2283 196.498C94.3955 193.933 93.894 187.331 93.6934 178.255C93.3013 160.312 87.9852 130.545 94.5414 127.13C98.4715 125.075 106.815 122.372 112.879 120.528C113.244 120.427 113.599 120.318 113.946 120.208C117.484 119.149 120.01 118.446 120.01 118.446C120.01 118.446 122.937 118.875 128.891 120.637C129.21 120.729 129.557 120.838 129.903 120.939C131.453 121.414 133.177 121.961 135.101 122.619C138.83 123.888 141.566 124.664 142.232 125.906C144.01 129.166 143.326 134.946 143.435 143.273C143.581 153.728 143.472 197.466 139.478 201.995Z" fill="#6842C2"/>
<path d="M92.2983 157.938L98.7086 142.287L94.0399 182.546L92.2983 157.938Z" fill="#47248F"/>
<path d="M129.903 120.948C129.766 123.158 128.773 125.102 127.277 126.527C125.745 127.988 123.675 128.874 121.423 128.874C116.763 128.874 112.988 125.139 112.897 120.519C113.262 120.418 113.617 120.309 113.964 120.199C117.502 119.14 120.028 118.437 120.028 118.437C120.028 118.437 122.955 118.866 128.909 120.628C129.219 120.747 129.557 120.847 129.903 120.948Z" fill="#04D361"/>
<path d="M133.789 86.5001C133.789 86.5001 130.413 83.2689 125.304 82.5001C117.83 81.3756 107.991 83.8105 106.031 95.2348C104.481 101.818 112.496 112.639 115.523 112.009C115.523 112.009 142.774 94.7348 133.789 86.5001Z" fill="#43302D"/>
<path d="M128.882 102.33L128.153 116.501L127.943 120.546C127.861 122.263 127.104 123.797 125.937 124.902C124.779 126.006 123.21 126.673 121.496 126.673C117.867 126.673 114.949 123.678 115.04 120.053L115.222 112.839L115.532 100.85L128.882 102.33Z" fill="#BC8567"/>
<path d="M128.882 105.151L128.153 118.501C121.888 118.756 117.311 116.2 115.213 112.803L115.523 103.672L128.882 105.151Z" fill="#765441"/>
<path d="M133.852 94.1756C133.852 94.1756 134.317 98.7959 133.669 103.9C132.922 109.808 133.186 116.748 124.487 117.213C115.204 117.706 112.131 107.306 112.131 107.306C112.131 107.306 107.198 106.384 106.861 103.051C106.523 99.7181 109.97 99.5264 111.092 100.458C111.092 100.458 112.368 88.0212 123.839 88.0212C133.988 88.0304 133.852 94.1756 133.852 94.1756Z" fill="#BC8567"/>
<path d="M123.237 103.106C123.237 103.617 122.827 104.028 122.317 104.028C121.806 104.028 121.396 103.617 121.396 103.106C121.396 102.594 121.806 102.184 122.317 102.184C122.818 102.184 123.237 102.594 123.237 103.106Z" fill="#60423D"/>
<path d="M132.11 102.631C132.11 103.142 131.699 103.553 131.189 103.553C130.678 103.553 130.268 103.142 130.268 102.631C130.268 102.12 130.678 101.709 131.189 101.709C131.699 101.709 132.11 102.12 132.11 102.631Z" fill="#60423D"/>
<path d="M118.688 100.467C118.688 100.467 120.046 98.2208 122.954 99.0334" stroke="#43302D" stroke-miterlimit="10" stroke-linecap="round" stroke-linejoin="round"/>
<path d="M127.952 98.9967C127.952 98.9967 130.049 97.0796 132.109 99.1793" stroke="#43302D" stroke-miterlimit="10" stroke-linecap="round" stroke-linejoin="round"/>
<path d="M126.119 101.28C126.119 101.28 127.113 103.818 127.961 105.407C128.809 106.986 126.302 107.69 126.302 107.69" stroke="#765441" stroke-width="0.75" stroke-miterlimit="10" stroke-linecap="round" stroke-linejoin="round"/>
<path d="M122.782 110.529C122.782 110.529 124.833 112.52 127.468 111.305" stroke="#765441" stroke-width="0.75" stroke-miterlimit="10" stroke-linecap="round" stroke-linejoin="round"/>
<path d="M110.945 104.127C110.945 104.127 110.918 101.27 108.785 102.046" stroke="#765441" stroke-width="0.75" stroke-miterlimit="10" stroke-linecap="round" stroke-linejoin="round"/>
<path d="M113.763 90.8337C113.763 90.8337 118.979 96.1571 116.125 98.1934C112.952 100.458 112.45 103.672 112.45 103.672C112.45 103.672 112.514 102.54 111.101 100.467C109.687 98.3943 106.605 91.0346 113.763 90.8337Z" fill="#43302D"/>
<path d="M85.2041 147.693C85.2041 147.693 74.8727 167.261 74.6448 173.269C74.4168 179.277 81.0278 177.935 84.4472 172.52C87.8667 167.096 93.3379 151.72 93.3379 151.72L85.2041 147.693Z" fill="#BC8567"/>
<path d="M158.873 165.598C158.873 165.598 143.472 154.185 142.596 153.536C141.11 152.422 138.94 150.806 138.156 150.258C136.915 149.391 129.666 148.131 128.654 148.295C127.651 148.459 124.87 148.934 124.058 149.236C123.247 149.537 124.268 150.578 125.07 151.071C125.873 151.564 129.429 153.408 132.447 153.965C134.125 154.276 135.566 155.125 136.742 155.974C137.681 156.65 153.931 173.241 154.542 173.643L158.873 165.598Z" fill="#BC8567"/>
<path d="M139.806 151.592C139.806 151.592 134.007 146.159 133.14 146.241C132.283 146.323 132.894 147.547 135.174 149.4C135.949 150.03 136.779 151.026 137.472 151.354C138.83 151.993 139.806 151.592 139.806 151.592Z" fill="#BC8567"/>
<path d="M135.133 171.165L135.135 171.165C135.648 171.107 136.072 170.736 136.204 170.231L136.204 170.23L141.255 150.782C141.477 149.926 140.765 149.108 139.883 149.212C139.883 149.212 139.883 149.212 139.883 149.212L118.738 151.741L118.735 151.742L118.735 151.742C118.223 151.8 117.798 152.171 117.667 152.676L117.667 152.676L112.615 172.125C112.393 172.981 113.105 173.799 113.987 173.695L135.133 171.165ZM135.133 171.165L113.987 173.695L135.133 171.165Z" fill="#04D361" stroke="#04D361"/>
<path d="M136.132 172.31L114.986 174.839C113.755 174.986 112.761 173.844 113.071 172.648L118.123 153.199C118.305 152.496 118.898 151.975 119.618 151.893L140.764 149.364C141.995 149.218 142.989 150.359 142.679 151.555L137.627 171.004C137.445 171.698 136.852 172.219 136.132 172.31Z" fill="white"/>
<path d="M119.863 157.108L119.863 157.108L119.861 157.113C119.861 157.117 119.857 157.126 119.845 157.137C119.833 157.147 119.818 157.155 119.8 157.159L118.794 157.276L118.794 157.276C118.773 157.279 118.754 157.272 118.738 157.254C118.723 157.236 118.719 157.217 118.724 157.196L118.724 157.196L119.718 153.38L119.718 153.38L119.721 153.37C119.725 153.351 119.742 153.334 119.768 153.33L120.787 153.212L120.787 153.212C120.808 153.209 120.827 153.216 120.842 153.234C120.858 153.252 120.862 153.271 120.857 153.292L120.856 153.292L119.863 157.108Z" fill="#04D361" stroke="#04D361"/>
<path d="M78.593 167.48C85.049 167.736 105.228 167.316 107.9 166.402C109.049 166.01 111.876 165.416 112.596 164.293C113.326 163.152 113.946 161.417 114.703 161.289C115.286 161.189 115.149 163.07 114.976 163.754C114.648 164.987 114.429 165.626 113.991 166.192C113.845 166.384 118.815 167.096 121.934 166.302C124.076 165.754 123.675 167.471 122.235 168.192C122.235 168.192 122.809 169.69 121.295 170.183C121.295 170.183 121.56 171.845 120.101 171.972C119.946 172.383 119.49 173.123 118.231 173.479C116.408 173.99 113.244 173.981 110.836 174.082C109.414 174.136 81.9213 178.437 77.0611 177.214C75.0368 176.702 76.4957 167.398 78.593 167.48Z" fill="#BC8567"/>
<path d="M97.122 150.323C97.122 150.323 96.6478 152.121 95.9457 153.975C95.1615 156.02 94.0946 158.121 93.046 157.929C93.046 157.929 78.7845 153.418 79.2587 151.957C79.6143 150.87 80.2253 149.455 80.9821 147.885C83.3438 142.972 87.0915 136.562 88.6052 134.078C93.7663 125.596 95.8819 126.673 95.8819 126.673C103.113 126.326 97.122 150.323 97.122 150.323Z" fill="#6842C2"/>
<path d="M95.9457 153.975C95.1615 156.02 94.0946 158.12 93.046 157.929C93.046 157.929 78.7845 153.418 79.2587 151.957C79.6143 150.87 80.2253 149.455 80.9821 147.885C83.6083 149.126 90.6934 152.386 95.9457 153.975Z" fill="#04D361"/>
<path d="M100.469 193.96C100.469 193.96 124.177 190.152 136.943 182.546C136.943 182.546 122.663 196.855 100.469 193.96Z" fill="#47248F"/>
<path d="M396.148 284.439H334.497C331.46 284.439 329.008 281.974 329.008 278.943V249.111C329.008 246.071 331.47 243.615 334.497 243.615H396.148C399.184 243.615 401.637 246.08 401.637 249.111V278.933C401.646 281.974 399.184 284.439 396.148 284.439Z" fill="#6842C2"/>
<path d="M335.545 273.893C341.29 273.893 341.29 267.045 347.035 267.045C352.779 267.045 352.779 257.914 358.524 257.914C364.269 257.914 364.269 261.411 370.013 261.411C375.758 261.411 375.758 252.965 381.503 252.965C387.247 252.965 387.247 266.214 392.992 266.214" stroke="white" stroke-width="2" stroke-miterlimit="10" stroke-linecap="round" stroke-linejoin="round"/>
<path d="M337.223 273.893C337.223 272.971 336.475 272.222 335.554 272.222C334.634 272.222 333.886 272.971 333.886 273.893C333.886 274.815 334.634 275.563 335.554 275.563C336.475 275.563 337.223 274.815 337.223 273.893Z" fill="white"/>
<path d="M394.67 266.223C394.67 265.301 393.922 264.552 393.001 264.552C392.08 264.552 391.333 265.301 391.333 266.223C391.333 267.145 392.08 267.893 393.001 267.893C393.922 267.893 394.67 267.145 394.67 266.223Z" fill="white"/>
<path d="M39.6203 69.0468H101.198C105.32 69.0468 108.666 65.6957 108.666 61.5685V42.7493C108.666 38.6221 105.32 35.271 101.198 35.271H39.6203C35.4987 35.271 32.1522 38.6221 32.1522 42.7493V61.5685C32.1522 65.7048 35.4987 69.0468 39.6203 69.0468Z" fill="#6842C2"/>
<path d="M99.4928 67.111V75.3107L90.7116 66.5266L99.4928 67.111Z" fill="#6842C2"/>
<path d="M39.2281 43.562H56.2981" stroke="white" stroke-width="2.2165" stroke-miterlimit="10" stroke-linecap="round" stroke-linejoin="round"/>
<path d="M62.3802 43.562H101.59" stroke="white" stroke-width="2.2165" stroke-miterlimit="10" stroke-linecap="round" stroke-linejoin="round"/>
<path d="M39.2281 52.1636H71.052" stroke="white" stroke-width="2.2165" stroke-miterlimit="10" stroke-linecap="round" stroke-linejoin="round"/>
<path d="M75.9214 52.1636H85.3409" stroke="white" stroke-width="2.2165" stroke-miterlimit="10" stroke-linecap="round" stroke-linejoin="round"/>
<path d="M90.3925 52.1636H101.59" stroke="white" stroke-width="2.2165" stroke-miterlimit="10" stroke-linecap="round" stroke-linejoin="round"/>
<path d="M39.2281 60.7559H46.4318" stroke="white" stroke-width="2.2165" stroke-miterlimit="10" stroke-linecap="round" stroke-linejoin="round"/>
<path d="M50.8452 60.7559H76.8331" stroke="white" stroke-width="2.2165" stroke-miterlimit="10" stroke-linecap="round" stroke-linejoin="round"/>
<path d="M425.119 39.471H409.316C406.38 39.471 404 37.0878 404 34.1476V18.3234C404 15.3832 406.38 13 409.316 13H425.119C428.055 13 430.435 15.3832 430.435 18.3234V34.1476C430.435 37.0878 428.055 39.471 425.119 39.471Z" fill="#E33D3D"/>
<path d="M426.212 24.8696L425.82 23.1347C425.747 22.7968 425.401 22.5868 425.063 22.6599L424.042 22.8973C423.778 22.9612 423.513 22.8333 423.367 22.6051C422.966 21.975 422.474 21.4089 421.908 20.9341C421.68 20.7423 421.607 20.4319 421.735 20.1671L422.246 19.117C422.401 18.8065 422.264 18.423 421.954 18.2769L420.349 17.5008C420.039 17.3456 419.656 17.4825 419.51 17.793L418.963 18.9344C418.844 19.19 418.562 19.3179 418.288 19.2814C417.951 19.2357 417.595 19.2083 417.249 19.2083C416.893 19.2083 416.547 19.2357 416.209 19.2814C415.926 19.3179 415.653 19.19 415.534 18.9344L414.987 17.793C414.832 17.4825 414.458 17.3456 414.148 17.5008L412.543 18.2769C412.233 18.4322 412.097 18.8065 412.252 19.117L412.762 20.1671C412.89 20.4319 412.808 20.7423 412.589 20.9341C412.024 21.418 411.522 21.975 411.13 22.6051C410.984 22.8333 410.72 22.9612 410.455 22.8973L409.434 22.6599C409.097 22.5868 408.759 22.7968 408.677 23.1347L408.285 24.8696C408.212 25.2074 408.422 25.5453 408.759 25.6274L410.054 25.9196C410.045 26.1023 410.027 26.2758 410.027 26.4584C410.027 27.3258 410.182 28.1659 410.464 28.9329C410.556 29.1886 410.492 29.4808 410.273 29.6542L409.771 30.056C409.498 30.2752 409.452 30.6678 409.671 30.9417L410.729 32.3388C410.948 32.6127 411.34 32.6584 411.613 32.4392L411.96 32.1562C412.197 31.9735 412.525 31.9827 412.753 32.1653C413.483 32.7314 414.312 33.1697 415.224 33.4345C415.498 33.5167 415.699 33.7541 415.699 34.0463V34.4115C415.699 34.7585 415.981 35.0416 416.328 35.0416H418.106C418.452 35.0416 418.735 34.7585 418.735 34.4115V34.0463C418.735 33.7541 418.936 33.5167 419.209 33.4345C420.121 33.1697 420.951 32.7405 421.68 32.1653C421.917 31.9827 422.246 31.9644 422.474 32.1562L422.82 32.4392C423.094 32.6584 423.486 32.6127 423.705 32.3388L424.817 30.9509C425.036 30.6769 424.99 30.2843 424.717 30.0651L424.215 29.6634C423.996 29.4899 423.933 29.1977 424.024 28.942C424.306 28.1659 424.461 27.335 424.461 26.4675C424.461 26.2849 424.443 26.1114 424.434 25.9288L425.729 25.6366C426.075 25.5453 426.285 25.2074 426.212 24.8696ZM417.221 30.9691C414.732 30.9691 412.717 28.9512 412.717 26.4584C412.717 23.9656 414.732 21.9476 417.221 21.9476C419.711 21.9476 421.726 23.9656 421.726 26.4584C421.726 28.9512 419.711 30.9691 417.221 30.9691Z" fill="white"/>
<path d="M563.142 143.349C564.761 133.369 557.993 123.966 548.026 122.348C538.059 120.73 528.666 127.508 527.047 137.489C525.428 147.469 532.196 156.872 542.163 158.49C552.13 160.109 561.523 153.33 563.142 143.349Z" fill="#6842C2"/>
<path d="M555.102 142.823C556.407 137.292 552.987 131.751 547.463 130.446C541.94 129.141 536.404 132.567 535.098 138.097C533.793 143.628 537.212 149.17 542.736 150.475C548.26 151.779 553.796 148.354 555.102 142.823Z" fill="#6842C2" stroke="white" stroke-width="2" stroke-miterlimit="10" stroke-linecap="round" stroke-linejoin="round"/>
<path d="M545.081 133.695V140.424L541.534 143.976" fill="#6842C2"/>
<path d="M545.081 133.695V140.424L541.534 143.976" stroke="white" stroke-width="2" stroke-miterlimit="10" stroke-linecap="round" stroke-linejoin="round"/>
<path d="M545.081 130.134V131.12" stroke="white" stroke-width="2" stroke-miterlimit="10" stroke-linecap="round" stroke-linejoin="round"/>
<path d="M545.081 149.738V150.715" stroke="white" stroke-width="2" stroke-miterlimit="10" stroke-linecap="round" stroke-linejoin="round"/>
<path d="M555.358 140.424H554.373" stroke="white" stroke-width="2" stroke-miterlimit="10" stroke-linecap="round" stroke-linejoin="round"/>
<path d="M535.79 140.424H534.804" stroke="white" stroke-width="2" stroke-miterlimit="10" stroke-linecap="round" stroke-linejoin="round"/>
</svg>
