<svg width="35" height="35" viewBox="0 0 103 85" fill="none" xmlns="http://www.w3.org/2000/svg">
<g clip-path="url(#clip0)">
<path d="M51.5 77.6671C79.9427 77.6671 103 60.2807 103 38.8335C103 17.3864 79.9427 0 51.5 0C23.0573 0 0 17.3864 0 38.8335C0 60.2807 23.0573 77.6671 51.5 77.6671Z" fill="#6C63FF"/>
<path d="M57.0335 85L62.5239 69.949C62.5239 69.949 77.3431 59.3581 76.4789 50.8873C76.4503 50.607 76.4789 50.5854 76.4789 50.5854L76.2888 48.4592C76.2765 48.3211 76.2098 48.189 76.0972 48.0797C75.9847 47.9704 75.8314 47.889 75.6571 47.8458C75.4827 47.8026 75.2953 47.7996 75.1187 47.8373C74.9421 47.8749 74.7844 47.9514 74.6659 48.0571L71.7319 50.6717L70.6755 51.7436C70.6755 51.7436 68.0716 54.1218 63.2674 53.0436L61.7232 52.8711C61.7232 52.8711 57.8627 54.2727 52.6582 52.0302C52.6582 52.0302 54.4884 53.6689 50.0274 50.3051C45.5663 46.9413 39.5611 41.6799 39.5611 41.6799C38.6285 40.9276 39.2819 38.8282 40.645 38.7656C43.7388 38.6237 47.2654 37.9993 48.2572 37.164C48.6354 36.8436 48.9207 36.4672 49.0949 36.0588C49.286 35.6163 49.3436 35.1473 49.2635 34.6858C49.1834 34.2244 48.9677 33.7823 48.632 33.3918C48.2963 33.0013 47.8492 32.6723 47.3233 32.4287C46.7975 32.1852 46.2061 32.0333 45.5924 31.9841C41.9965 31.6993 36.1476 31.4793 34.475 31.9638C34.3165 32.0103 34.1613 32.0628 34.0099 32.1211C32.9916 32.5167 32.1246 33.1025 31.4917 33.8225C30.8587 34.5425 30.481 35.3728 30.3943 36.2341C29.9241 40.5685 29.3063 50.0715 32.1437 55.135L35.672 61.4316L24.7482 84.8059L57.0335 85Z" fill="#2F2E41"/>
<path d="M72.7301 49.5747C72.7301 49.5747 68.1552 50.5239 68.018 47.1596C68.018 47.1596 67.6971 31.3695 52.0407 37.0482C36.3843 42.7269 44.1209 50.8122 44.1209 50.8122C44.1209 50.8122 46.2711 50.8488 45.8493 52.0716C45.4275 53.2944 44.764 54.8001 44.764 54.8001C44.764 54.8001 44.716 56.1932 46.9056 55.6974C46.9056 55.6974 47.552 55.9134 46.6552 56.8412C46.6552 56.8412 47.0513 58.2009 48.1813 57.8511C48.1813 57.8511 47.3943 58.0427 47.7989 58.5416C48.2036 59.0404 48.3356 59.4937 49.0215 59.1773C49.7073 58.861 50.2835 59.2808 50.2835 59.2808C50.2835 59.2808 50.3898 62.3165 54.3335 60.4976C58.2772 58.6787 57.9119 57.6475 59.8204 57.967C60.0063 57.9975 60.1943 58.0205 60.3835 58.0357C61.5575 58.1259 62.7423 57.9818 63.8191 57.6178C64.896 57.2538 65.8269 56.6826 66.5187 55.9617L72.7301 49.5747Z" fill="#6C63FF"/>
<path d="M71.716 41.5761C71.5753 41.5761 71.4346 41.5816 71.2946 41.5925C70.6837 41.6386 70.0949 41.789 69.5726 42.0322C69.0502 42.2754 68.6082 42.6051 68.2799 42.9962L63.7782 48.3305C63.4725 48.6923 63.2941 49.1067 63.2595 49.5349C63.225 49.963 63.3356 50.3907 63.5808 50.7777C63.8261 51.1647 64.1979 51.4983 64.6614 51.747C65.1248 51.9957 65.6646 52.1514 66.2298 52.1993L66.318 52.2066C66.8454 52.247 67.378 52.1922 67.8718 52.0469C68.3656 51.9016 68.8066 51.6698 69.1583 51.3708L74.7149 46.657C75.3913 46.0924 75.7612 45.3565 75.751 44.5957C75.7408 43.8348 75.3513 43.1047 74.6599 42.5505C74.633 42.5289 74.6061 42.5077 74.5791 42.4869C74.2073 42.198 73.7622 41.9685 73.2703 41.8121C72.7785 41.6556 72.2499 41.5754 71.716 41.5761V41.5761Z" fill="#2F2E41"/>
<path d="M65.0966 35.9233C64.3853 35.9234 63.6856 36.0592 63.0627 36.3181C62.4398 36.577 61.9139 36.9506 61.5341 37.4041L54.8961 45.3469C54.5389 45.7695 54.3213 46.2505 54.2616 46.7496C54.2019 47.2487 54.3018 47.7514 54.5529 48.2153C54.7941 48.6766 55.1785 49.0876 55.6739 49.4138C56.1692 49.7399 56.7611 49.9718 57.3998 50.0898C57.4442 50.098 57.4891 50.1062 57.5348 50.114C58.3289 50.2487 59.1579 50.2049 59.9193 49.9881C60.6808 49.7712 61.3412 49.3908 61.819 48.8939C63.7505 46.9 67.2513 43.2044 68.9969 40.856C69.4059 40.3168 69.5919 39.6976 69.5309 39.0781C69.4698 38.4586 69.1646 37.867 68.6545 37.3793V37.3793C68.4486 37.1835 68.2276 36.997 67.9926 36.8209C67.2228 36.2445 66.1814 35.9218 65.0966 35.9233V35.9233Z" fill="#2F2E41"/>
<path d="M56.8034 31.4142C55.841 31.4202 54.9065 31.6585 54.1367 32.094C53.3669 32.5295 52.8022 33.1394 52.5253 33.8344C51.2449 37.0544 48.5522 40.4589 47.061 42.2017C46.8137 42.4919 46.6469 42.8168 46.5707 43.1569C46.4945 43.4971 46.5104 43.8453 46.6176 44.1807C46.718 44.5024 46.905 44.8051 47.167 45.07C47.429 45.335 47.7604 45.5565 48.1407 45.7209C48.1937 45.7439 48.2472 45.7659 48.3012 45.787C50.3255 46.5805 52.867 46.023 54.0876 44.5175L60.5572 36.5374C60.9277 36.0843 61.1508 35.5716 61.2082 35.0411C61.2656 34.5105 61.1558 33.9773 60.8875 33.4849C60.637 33.0073 60.2401 32.5812 59.7293 32.2414C59.2185 31.9016 58.6083 31.6577 57.9486 31.5298C57.8615 31.5128 57.7743 31.4974 57.687 31.4836C57.3964 31.4374 57.1003 31.4142 56.8034 31.4142Z" fill="#2F2E41"/>
<path d="M42.1968 30.4959C42.7863 30.5394 43.4521 30.57 44.154 30.6022C46.6528 30.717 49.4616 30.8461 50.2887 31.6462L50.4521 31.3279C50.6719 30.8496 50.7385 30.339 50.6466 29.8376C50.5546 29.3363 50.3068 28.8584 49.9233 28.443C49.5599 28.038 49.0745 27.7036 48.5069 27.4671C47.9393 27.2306 47.3055 27.0987 46.6574 27.0823C46.5718 27.0801 46.4865 27.0794 46.4017 27.08C44.2326 27.0973 42.4072 28.4094 42.246 30.0671C42.2326 30.2054 42.2164 30.3466 42.1968 30.4959Z" fill="#2F2E41"/>
<path d="M47.2781 39.3992C47.2301 39.3995 47.1832 39.4101 47.1428 39.4296V39.4296C45.23 40.3224 42.0943 40.5131 40.3954 40.5473C40.3238 40.5487 40.2542 40.5654 40.1947 40.5956C40.1353 40.6257 40.0885 40.6681 40.0598 40.7176C40.0306 40.765 40.0202 40.8179 40.03 40.8697C40.0398 40.9216 40.0693 40.9702 40.1149 41.0096C40.8542 41.6602 42.5829 42.4286 44.1961 42.5887C45.5421 42.7203 46.8502 40.8166 47.5101 39.6687C47.5329 39.6314 47.5388 39.5894 47.5268 39.5494C47.5148 39.5093 47.4857 39.4733 47.4439 39.447C47.3979 39.4167 47.3392 39.3997 47.2781 39.3992V39.3992Z" fill="#2F2E41"/>
</g>
<defs>
<clipPath id="clip0">
<rect width="103" height="85" fill="white"/>
</clipPath>
</defs>
</svg>
